<?xml version="1.0" encoding="UTF-8"?>
<svg id="Layer_2" data-name="Layer 2" xmlns="http://www.w3.org/2000/svg" viewBox="0 0 248.55 248.56">
  <defs>
    <style>
      .cls-1 {
        fill: #14a0de;
      }

      .cls-2 {
        fill: #203a72;
      }
    </style>
  </defs>
  <g id="Layer_1-2" data-name="Layer 1">
    <g>
      <g>
        <path class="cls-2" d="m8.53,79.04c-4.7,0-8.53-3.82-8.53-8.53v-37.52C0,14.8,14.79,0,32.98,0h37.52c4.7,0,8.53,3.82,8.53,8.53s-3.83,8.53-8.53,8.53h-37.52c-8.78,0-15.92,7.14-15.92,15.92v37.52c0,4.71-3.83,8.53-8.53,8.53Z"/>
        <path class="cls-2" d="m178.04,248.56c-4.7,0-8.53-3.82-8.53-8.53s3.83-8.53,8.53-8.53h37.52c8.78,0,15.92-7.14,15.92-15.92v-37.52c0-4.71,3.83-8.53,8.53-8.53s8.53,3.82,8.53,8.53v37.52c0,18.19-14.79,32.98-32.98,32.98h-37.52Z"/>
        <path class="cls-2" d="m240.02,79.04c-4.7,0-8.53-3.82-8.53-8.53v-37.52c0-8.78-7.14-15.92-15.92-15.92h-37.52c-4.7,0-8.53-3.82-8.53-8.53s3.83-8.53,8.53-8.53h37.52c18.19,0,32.98,14.8,32.98,32.98v37.52c0,4.71-3.82,8.53-8.53,8.53Z"/>
        <path class="cls-2" d="m32.98,248.56c-18.19,0-32.98-14.8-32.98-32.98v-37.52c0-4.71,3.82-8.53,8.53-8.53s8.53,3.82,8.53,8.53v37.52c0,8.78,7.14,15.92,15.92,15.92h37.52c4.7,0,8.53,3.82,8.53,8.53s-3.83,8.53-8.53,8.53h-37.52Z"/>
      </g>
      <g>
        <path class="cls-1" d="m124.27,188.81c60.81,0,98.14-42.3,108.13-55.26,4.21-5.46,4.21-13.08,0-18.54-9.99-12.97-47.32-55.26-108.13-55.26S26.14,102.04,16.14,115.01c-4.2,5.45-4.2,13.08,0,18.54,9.99,12.96,47.32,55.26,108.13,55.26Zm55.49-97.41c19.81,11.17,32.88,25.76,38.52,32.88-5.64,7.13-18.7,21.71-38.52,32.89,5.73-9.64,9.04-20.88,9.04-32.89s-3.31-23.25-9.04-32.88Zm-55.49-14.81c26.3,0,47.69,21.4,47.69,47.69s-21.4,47.69-47.69,47.69-47.7-21.4-47.7-47.69,21.4-47.69,47.7-47.69Zm-55.49,14.81c-5.73,9.63-9.04,20.88-9.04,32.88s3.3,23.25,9.04,32.88c-19.82-11.17-32.88-25.76-38.52-32.88,5.64-7.13,18.7-21.71,38.52-32.88Z"/>
        <path class="cls-1" d="m124.28,156.74c17.92,0,32.47-14.53,32.47-32.47s-14.55-32.47-32.47-32.47c-4.5,0-8.8.91-12.7,2.57,5.5,1.76,9.47,6.92,9.47,13.01,0,7.55-6.11,13.68-13.68,13.68-6.06,0-11.21-3.96-12.99-9.45-1.66,3.89-2.57,8.17-2.57,12.65,0,17.94,14.53,32.47,32.47,32.47Z"/>
      </g>
    </g>
  </g>
</svg>