<?xml version="1.0" encoding="UTF-8"?>
<svg id="Layer_2" data-name="Layer 2" xmlns="http://www.w3.org/2000/svg" viewBox="0 0 1483.41 1483.87">
  <defs>
    <style>
      .cls-1 {
        fill: #4fc3f7;
      }

      .cls-2 {
        fill: #1976d2;
      }
    </style>
  </defs>
  <g id="Layer_1-2" data-name="Layer 1">
    <g>
      <path class="cls-2" d="m707,1112.3c-92.48,92.45-242.94,92.45-335.4,0-92.49-92.51-92.49-242.96-.03-335.44l214.62-214.61-213.82-213.8-214.62,214.61c-210.34,210.36-210.34,552.66.03,763.05,210.36,210.36,552.67,210.36,763.02,0l214.62-214.61-213.82-213.83-214.61,214.63Z"/>
      <path class="cls-1" d="m765.78,382.66c12.23-12.23,12.23-32.12,0-44.34l-169.46-169.46c-12.26-12.26-32.12-12.26-44.36,0l-100.54,100.54,213.82,213.8,100.54-100.54Z"/>
      <path class="cls-1" d="m1145.55,718.07c-12.24-12.23-32.12-12.23-44.36,0l-100.54,100.54,213.82,213.83,100.54-100.54c12.24-12.26,12.24-32.12,0-44.37l-169.46-169.46Z"/>
      <path class="cls-1" d="m1330.12,154.22C1230.63,54.79,1098.61-.03,958.27,0,926.77,0,901.23,25.52,901.23,57c.01,31.52,25.54,57.06,57.03,57.03,109.86,0,213.3,42.94,291.2,120.84,77.05,77.04,120.74,183.01,119.87,290.75-.22,31.49,25.11,57.2,56.57,57.49h.43c31.33,0,56.79-25.23,57.06-56.54,1.09-138.14-54.76-273.85-153.27-372.35Z"/>
      <path class="cls-1" d="m1095.34,389.06c36.48,36.54,56.57,85.25,56.59,137.25.01,31.51,25.53,57.03,57.03,57.03s57.03-25.52,57.03-57.03c0-82.49-31.99-159.84-90.04-217.91-58.05-58.06-135.47-90.04-217.95-90.07-31.47.03-57.02,25.55-57.02,57.03.01,31.51,25.54,57.06,57.02,57.03,52.02.03,100.77,20.09,137.34,56.66Z"/>
      <path class="cls-1" d="m958,616.26c49.31-.03,89.26-39.98,89.29-89.29,0-49.31-39.98-89.29-89.29-89.32-49.32.06-89.28,40.01-89.31,89.32.01,49.31,40,89.29,89.31,89.29Z"/>
    </g>
  </g>
</svg>