<?xml version="1.0" encoding="UTF-8"?><svg xmlns="http://www.w3.org/2000/svg" viewBox="0 0 382.88 314.75"><g id="a"/><g id="b"><g id="c"><g><g style="opacity:.8;"><path d="M225.5,124.05c-1.89,110.75-166.62,110.73-168.5,0,1.89-110.74,166.62-110.73,168.5,0Z" style="fill:#57c1ef; stroke:#57c1ef; stroke-miterlimit:10; stroke-width:82px;"/><polygon points="99.64 161.75 79.83 169 73.09 188.98 61.79 172.9 41.26 174.36 54.08 157.17 48.14 138.1 67.36 143.56 84.22 130.3 83.27 150.87 99.64 161.75" style="fill:#57c1ef; stroke:#57c1ef; stroke-miterlimit:10; stroke-width:39.15px;"/></g><g style="opacity:.8;"><path d="M217.7,113.44c100.14-47.34,173.06,100.38,74.6,151.09-100.13,47.34-173.06-100.38-74.6-151.09Z" style="fill:#3374ba; stroke:#3374ba; stroke-miterlimit:10; stroke-width:82px;"/><polygon points="307.23 209.6 322.5 224.15 343.4 221.36 333.98 238.6 344.38 256.37 323.29 252.48 308.82 266.25 305.2 246.6 285.86 237.35 304.71 229.1 307.23 209.6" style="fill:#3374ba; stroke:#3374ba; stroke-miterlimit:10; stroke-width:39.15px;"/></g><g><path d="M231,190.48c.05,3.24-5.05,3.24-5,0-.05-3.24,5.05-3.24,5,0Z" style="fill:#231f20; stroke:#fff; stroke-miterlimit:10; stroke-width:11.71px;"/><path d="M258.5,190.48c.05,3.24-5.05,3.24-5,0-.05-3.24,5.05-3.24,5,0Z" style="fill:#231f20; stroke:#fff; stroke-miterlimit:10; stroke-width:11.71px;"/><path d="M286,190.48c.05,3.24-5.05,3.24-5,0-.05-3.24,5.05-3.24,5,0Z" style="fill:#231f20; stroke:#fff; stroke-miterlimit:10; stroke-width:11.71px;"/></g></g></g></g></svg>