<?xml version="1.0" encoding="UTF-8"?>
<svg id="Layer_2" data-name="Layer 2" xmlns="http://www.w3.org/2000/svg" viewBox="0 0 79.99 79.73">
  <defs>
    <style>
      .cls-1 {
        fill: #57c1ef;
      }

      .cls-2 {
        fill: #3374ba;
      }
    </style>
  </defs>
  <g id="Layer_1-2" data-name="Layer 1">
    <g>
      <path class="cls-2" d="m44.74,0v36.84l32.6,17.18c1.7-4.44,2.64-9.26,2.64-14.3,0-20.48-15.4-37.36-35.25-39.72Z"/>
      <path class="cls-2" d="m9.92,66.11c7.33,8.35,18.08,13.62,30.06,13.62,13.65,0,25.7-6.84,32.92-17.28l-32.6-17.17-30.38,20.83Z"/>
      <path class="cls-1" d="m11.26,53.64l.38-.26,12.96-8.89H.25c.37,3.09,1.09,6.06,2.12,8.89h8.89v.26Z"/>
      <path class="cls-1" d="m35.21,0c-7.13.85-13.68,3.56-19.15,7.65h19.15V0Z"/>
      <path class="cls-1" d="m35.21,22.89v-8.89H9.34c-2.26,2.69-4.17,5.67-5.67,8.89h31.54Z"/>
      <path class="cls-1" d="m33.87,38.13l1.35-.92v-7.97H1.36c-.77,2.85-1.24,5.83-1.36,8.89h33.87Z"/>
    </g>
  </g>
</svg>