<?xml version="1.0" encoding="UTF-8"?>
<svg id="Layer_2" data-name="Layer 2" xmlns="http://www.w3.org/2000/svg" viewBox="0 0 75.75 80.19">
  <defs>
    <style>
      .cls-1 {
        fill: #57c1ef;
      }

      .cls-2 {
        fill: #3374ba;
      }
    </style>
  </defs>
  <g id="Layer_1-2" data-name="Layer 1">
    <g>
      <path class="cls-2" d="m45.46,58.58c.22.18.51.43.85.71.45-.38.72-.61.72-.61v-2.18c-.18-.19-.36-.4-.53-.63-.34.51-.69,1-1.04,1.43v1.29Z"/>
      <path class="cls-2" d="m11.61,71.33v-.05c.29-1.55,2.4-2.68,7.92-5.28.72-.34,1.47-.7,2.16-1.03,3.06-1.48,7.55-5.16,9.01-6.39v-1.29c-1.18-1.42-2.26-3.44-3.07-4.96-.35-.66-.79-1.47-.94-1.66-.97-1.13-2-4.8-2-5.89,0-1,.61-1.81,1.11-2.3v-5.38c.28-2.69,1.17-4.67,2.28-6.12-2.39-.83-4.43-.8-4.43-.8,0,0-10.12-.16-11.68,9.37-1.55,9.54-1.04,15.65-4.15,17.73,0,0,3.63,2.38,10.06,2.59,0,0,.52,3.52-.93,4.98-1.45,1.45-13.66,3.21-14.59,5.91l-2.35,6.71h10.91l.69-6.11v-.05Z"/>
      <path class="cls-2" d="m50.36,37.19v5.31c.5.49,1.11,1.29,1.11,2.3,0,1.09-1.02,4.75-1.99,5.88-.15.19-.59,1-.94,1.66-.56,1.05-1.26,2.35-2.03,3.52.18.23.35.44.53.63v2.18s-.27.23-.72.61c1.93,1.58,5.56,4.42,8.15,5.68.69.33,1.44.69,2.16,1.03,5.52,2.6,7.63,3.73,7.91,5.29v.05s.01.05.01.05l.69,6.07h10.51l-.88-7.75c-.2-1.09-4.86-3.08-8.34-4.76-3.47-1.69-8.75-6.25-8.75-6.25v-2.18c1.67-1.79,3.29-5.56,3.89-6.25.6-.69,1.49-3.67,1.49-4.47s-.99-1.49-.99-1.49v-5.25c-.89-8.83-9.76-8.27-9.76-8.27,0,0-1.9-.12-4.04.63.97,1.41,1.73,3.27,1.98,5.72v.07Z"/>
      <path class="cls-2" d="m63.85,77.45l-.67-5.92c-.22-1.22-5.44-3.44-9.32-5.32-2.83-1.37-6.73-4.46-8.64-6.03-.71-.58-1.14-.96-1.14-.96v-2.44c.54-.58,1.07-1.34,1.57-2.15,1.24-2,2.3-4.29,2.77-4.84.67-.78,1.66-4.1,1.66-4.99s-1.11-1.66-1.11-1.66v-5.87c-.23-2.29-.94-4.01-1.9-5.3-2.7-3.68-7.36-3.95-8.67-3.95-.22,0-.35,0-.35,0,0,0-.12,0-.35,0-1.25,0-5.6.25-8.34,3.53-1.12,1.34-1.97,3.18-2.22,5.73v5.87s-1.11.78-1.11,1.66,1,4.21,1.66,4.99c.67.78,2.48,4.99,4.34,6.99v2.44s-.23.2-.63.53c-.49.41-1.23,1.02-2.12,1.72-2.05,1.61-4.86,3.68-7.03,4.74-3.88,1.89-9.09,4.1-9.32,5.32l-.67,5.96-.31,2.71h52.18l-.31-2.75Z"/>
    </g>
    <g>
      <rect class="cls-1" x="12.87" y="14.25" width="11.15" height="10.43"/>
      <rect class="cls-1" x="32.3" y="7.1" width="11.15" height="17.58"/>
      <rect class="cls-1" x="51.73" width="11.15" height="24.68"/>
    </g>
  </g>
</svg>