<?xml version="1.0" encoding="UTF-8"?>
<svg id="Layer_2" data-name="Layer 2" xmlns="http://www.w3.org/2000/svg" viewBox="0 0 254.25 236.24">
  <defs>
    <style>
      .cls-1 {
        fill: #203b72;
      }

      .cls-2 {
        fill: #1e9fda;
      }
    </style>
  </defs>
  <g id="Layer_1-2" data-name="Layer 1">
    <g>
      <path class="cls-1" d="m53.92,112.4c-1.5-2.74-4.37-4.44-7.49-4.44h-9.48v-6.94c0-45.25,36.81-82.07,82.06-82.07,19.39,0,38.19,6.89,52.97,19.39,4,3.38,9.97,2.88,13.35-1.12,3.38-3.99,2.88-9.97-1.12-13.35C166.03,8.48,142.87,0,119.01,0,63.31,0,18.01,45.32,18.01,101.02v6.94h-9.48c-3.12,0-5.99,1.7-7.49,4.44-1.49,2.74-1.38,6.07.31,8.7l18.95,29.55c1.57,2.44,4.28,3.92,7.18,3.92s5.61-1.48,7.18-3.92l18.95-29.55c1.68-2.63,1.8-5.96.31-8.7Z"/>
      <path class="cls-2" d="m154.99,112.13l13.14-1.34c2.11-.22,3.71-1.99,3.71-4.11v-11.34c0-2.12-1.6-3.89-3.71-4.1l-13.14-1.34c-.47-.05-.87-.37-1.02-.82-.51-1.49-1.12-2.92-1.8-4.32-.21-.43-.16-.93.14-1.31l8.35-10.25c1.34-1.64,1.22-4.03-.28-5.53l-8.02-8.02c-1.5-1.5-3.88-1.62-5.52-.28l-10.25,8.35c-.37.3-.88.36-1.31.14-1.39-.69-2.83-1.3-4.32-1.81-.45-.15-.77-.55-.82-1.02l-1.34-13.14c-.22-2.11-1.99-3.71-4.11-3.71h-11.34c-2.12,0-3.89,1.6-4.11,3.71l-1.34,13.14c-.05.47-.37.87-.82,1.02-1.49.51-2.93,1.12-4.32,1.81-.43.21-.93.16-1.3-.14l-10.25-8.35c-1.64-1.34-4.03-1.22-5.52.28l-8.02,8.02c-1.5,1.5-1.62,3.89-.28,5.53l8.35,10.25c.3.37.35.88.14,1.31-.69,1.39-1.3,2.83-1.8,4.32-.16.45-.55.77-1.02.82l-13.14,1.34c-2.11.21-3.71,1.99-3.71,4.1v11.34c0,2.12,1.6,3.89,3.71,4.11l13.14,1.34c.47.05.87.37,1.02.82.51,1.49,1.12,2.92,1.8,4.32.21.43.16.93-.14,1.3l-8.35,10.25c-1.34,1.64-1.22,4.03.28,5.52l8.02,8.02c1.5,1.5,3.88,1.62,5.53.28l10.25-8.36c.37-.3.87-.35,1.3-.14,1.4.69,2.83,1.3,4.32,1.81.45.16.77.55.82,1.02l1.34,13.14c.22,2.11,1.99,3.71,4.11,3.71h11.34c2.12,0,3.89-1.6,4.11-3.71l1.34-13.14c.05-.47.37-.87.82-1.02,1.49-.51,2.92-1.12,4.32-1.81.43-.21.94-.16,1.31.14l10.25,8.35c1.64,1.34,4.03,1.22,5.52-.28l8.02-8.02c1.5-1.5,1.62-3.88.28-5.53l-8.35-10.25c-.3-.37-.35-.87-.14-1.3.69-1.4,1.3-2.83,1.8-4.32.16-.45.55-.77,1.02-.82Zm-35.97,7.21c-10.12,0-18.32-8.2-18.32-18.32s8.2-18.32,18.32-18.32,18.32,8.2,18.32,18.32-8.2,18.32-18.32,18.32Z"/>
      <path class="cls-1" d="m203.38,51.39l-18.95,29.55c-1.68,2.63-1.8,5.96-.31,8.7,1.5,2.74,4.37,4.44,7.49,4.44h9.48v6.94c0,45.24-36.81,82.06-82.06,82.06-19.39,0-38.2-6.89-52.97-19.38-4-3.38-9.98-2.88-13.35,1.12-3.38,3.99-2.88,9.97,1.12,13.35,18.18,15.38,41.34,23.86,65.21,23.86,23.03,0,44.23-7.82,61.24-20.85l44.51,49.47c6.48,7.2,17.67,7.49,24.52.64,6.85-6.85,6.55-18.04-.65-24.52l-49.47-44.51c13.03-17.01,20.86-38.21,20.86-61.24v-6.94s9.48,0,9.48,0c3.12,0,5.99-1.7,7.49-4.44,1.49-2.74,1.38-6.07-.31-8.7l-18.95-29.55c-3.15-4.89-11.22-4.89-14.36,0Z"/>
    </g>
  </g>
</svg>