<?xml version="1.0" encoding="UTF-8"?>
<svg id="Layer_2" data-name="Layer 2" xmlns="http://www.w3.org/2000/svg" viewBox="0 0 273.32 264.03">
  <defs>
    <style>
      .cls-1 {
        fill: #14a0de;
      }

      .cls-2 {
        fill: #203a72;
      }
    </style>
  </defs>
  <g id="Layer_1-2" data-name="Layer 1">
    <g>
      <path class="cls-2" d="m5.84,0h21.99c3.22,0,5.84,2.61,5.84,5.84v31.27c0,3.22-2.62,5.84-5.84,5.84H5.84C2.62,42.95,0,40.33,0,37.11V5.84C0,2.62,2.62,0,5.84,0Z"/>
      <path class="cls-2" d="m53.77,0h69.92c3.22,0,5.84,2.61,5.84,5.84v31.27c0,3.22-2.62,5.84-5.84,5.84H53.77c-3.22,0-5.84-2.61-5.84-5.84V5.84c0-3.22,2.62-5.84,5.84-5.84Z"/>
      <path class="cls-2" d="m149.63,0h69.92c3.22,0,5.84,2.61,5.84,5.84v31.27c0,3.22-2.62,5.84-5.84,5.84h-69.92c-3.22,0-5.84-2.62-5.84-5.84V5.84c0-3.22,2.62-5.84,5.84-5.84Z"/>
      <path class="cls-2" d="m245.49,0h21.99c3.22,0,5.84,2.61,5.84,5.84v31.27c0,3.22-2.62,5.84-5.84,5.84h-21.99c-3.22,0-5.84-2.61-5.84-5.84V5.84c0-3.22,2.62-5.84,5.84-5.84Z"/>
      <path class="cls-2" d="m5.84,57.21h69.92c3.22,0,5.84,2.61,5.84,5.84v31.28c0,3.22-2.61,5.84-5.84,5.84H5.84C2.62,100.15,0,97.54,0,94.32v-31.27c0-3.22,2.62-5.84,5.84-5.84Z"/>
      <path class="cls-2" d="m111.92,98.53c3.63-4.99,9.4-7.98,15.56-7.98,3.57,0,7.07.97,10.12,2.85,3.18,1.95,6.23,4.22,9.08,6.74h24.96c3.18,0,5.84-2.59,5.84-5.84v-31.26c0-3.24-2.66-5.84-5.84-5.84h-69.97c-3.18,0-5.84,2.59-5.84,5.84v31.26c0,3.24,2.66,5.84,5.84,5.84h9.21c.32-.58.65-1.1,1.04-1.62Z"/>
      <path class="cls-2" d="m197.56,57.21h69.92c3.22,0,5.84,2.61,5.84,5.84v31.27c0,3.22-2.62,5.84-5.84,5.84h-69.92c-3.22,0-5.84-2.61-5.84-5.84v-31.27c0-3.22,2.62-5.84,5.84-5.84Z"/>
      <path class="cls-2" d="m5.84,114.41h21.99c3.22,0,5.84,2.61,5.84,5.84v31.27c0,3.22-2.62,5.84-5.84,5.84H5.84C2.62,157.35,0,154.74,0,151.52v-31.27c0-3.22,2.62-5.84,5.84-5.84Z"/>
      <path class="cls-2" d="m47.92,120.26v31.25c0,3.24,2.59,5.84,5.84,5.84h26.33c4.41-6.09,9.08-11.67,13.42-16.92,6.81-8.11,17.05-20.43,15.69-24.51-.13-.52-.32-.97-.32-1.49h-55.12c-3.24,0-5.84,2.59-5.84,5.84Z"/>
      <path class="cls-2" d="m179.68,150.54c5.32,0,10.5,2.21,14.14,6.16.19.19.39.39.58.65h25.16c3.18,0,5.84-2.59,5.84-5.84v-31.25c0-3.24-2.66-5.84-5.84-5.84h-60.18c7.85,10.83,13.75,23.54,17.77,36.25.84-.13,1.69-.13,2.53-.13Z"/>
      <path class="cls-2" d="m245.49,114.41h21.99c3.22,0,5.84,2.61,5.84,5.84v31.27c0,3.22-2.62,5.84-5.84,5.84h-21.99c-3.22,0-5.84-2.61-5.84-5.84v-31.27c0-3.22,2.62-5.84,5.84-5.84Z"/>
      <path class="cls-2" d="m5.84,171.61c-3.24,0-5.84,2.59-5.84,5.84v31.26c0,3.24,2.59,5.84,5.84,5.84h54.47c-.06-1.23-.06-2.46-.06-3.7,0-14.91,4.41-27.88,10.7-39.23H5.84Z"/>
      <path class="cls-2" d="m267.48,171.61h-63.16c5.84,11.15,8.75,24.32,8.75,39.23,0,1.23,0,2.46-.06,3.7h54.47c3.24,0,5.84-2.59,5.84-5.84v-31.26c0-3.24-2.59-5.84-5.84-5.84Z"/>
      <path class="cls-1" d="m177.86,169.9c.29,13.37-11.63,24.12-11.63,24.12,1.53-26.26-12.68-70.15-37.82-85.68-1.43-.88-3.09.53-2.57,2.12,9.14,27.79-48.07,54.13-48.07,100.41,0,19.06,8.95,36.67,19.87,51.09,3.26,4.31,10.07,1.39,9.4-3.97-.24-1.9-.37-3.84-.37-5.8,0-27.69,27.58-43.77,24.78-60.36-.24-1.43,1.34-2.49,2.43-1.53,11.91,10.42,18.58,35.99,17.83,51.53,0,0,5.28-5.74,5.87-13.19.11-1.43,2.1-1.87,2.89-.67,6.16,9.35,6.16,20.5,6.16,24.22,0,1.96-.13,3.89-.37,5.8-.67,5.36,6.14,8.27,9.4,3.97,10.92-14.42,19.87-32.03,19.87-51.09,0-6.43,0-26.55-14.57-42.25-1.15-1.24-3.15-.4-3.11,1.29Z"/>
    </g>
  </g>
</svg>