<?xml version="1.0" encoding="UTF-8"?>
<svg id="Layer_2" data-name="Layer 2" xmlns="http://www.w3.org/2000/svg" viewBox="0 0 271.8 253.76">
  <defs>
    <style>
      .cls-1 {
        fill: #57c1ef;
      }

      .cls-2 {
        fill: #3374ba;
      }
    </style>
  </defs>
  <g id="Layer_1-2" data-name="Layer 1">
    <path class="cls-2" d="m117.79,162.94c4.83-5.94,12.04-9.44,19.77-9.44h.97l13.82-25.04c-7.66-10.55-17.91-19.25-29.73-25.12-10.77,7.88-24.08,12.56-38.42,12.56s-27.64-4.68-38.42-12.56C18.65,116.87,0,144.96,0,177.36v24.08c0,7.88,6.39,14.27,14.27,14.27h104.78l-6.47-31.43c-1.63-7.58.3-15.31,5.2-21.33Z"/>
    <path class="cls-2" d="m84.2,101.03c27.91,0,50.52-22.61,50.52-50.52S112.1,0,84.2,0s-50.52,22.61-50.52,50.52,22.62,50.52,50.52,50.52Z"/>
    <path class="cls-2" d="m261.11,168.39h-9.72l-18.87-34.23c-2.23-4.05-7.33-5.53-11.38-3.3-4.05,2.24-5.52,7.34-3.29,11.38l14.41,26.15h-65.84l14.41-26.15c2.23-4.05.76-9.14-3.29-11.38-4.05-2.23-9.14-.76-11.38,3.3l-18.87,34.23h-9.72c-6.78,0-11.84,6.22-10.47,12.86l13.28,63.99c1.03,4.96,5.4,8.52,10.47,8.52h96.98c5.06,0,9.44-3.56,10.47-8.52l13.28-63.99c1.38-6.64-3.69-12.86-10.47-12.86Zm-86.5,58.78c0,3.91-3.18,7.08-7.09,7.08s-7.09-3.17-7.09-7.08v-32.18c0-3.91,3.18-7.08,7.09-7.08s7.09,3.17,7.09,7.08v32.18Zm31.81,0c0,3.91-3.17,7.08-7.09,7.08s-7.09-3.17-7.09-7.08v-32.18c0-3.91,3.17-7.08,7.09-7.08s7.09,3.17,7.09,7.08v32.18Zm31.82,0c0,3.91-3.18,7.08-7.09,7.08s-7.09-3.17-7.09-7.08v-32.18c0-3.91,3.17-7.08,7.09-7.08s7.09,3.17,7.09,7.08v32.18Z"/>
    <path class="cls-1" d="m196.71,116.6c1.46,1.47,3.84,1.47,5.3,0l31.05-31.05c9.56-9.56,7.7-26.21-5.57-33.01-7.92-4.06-17.67-1.73-23.96,4.56l-4.18,4.18-4.71-4.72c-9.56-9.55-26.2-7.7-33.01,5.57-4.06,7.91-1.73,17.67,4.57,23.96l30.51,30.51Z"/>
  </g>
</svg>