<?xml version="1.0" encoding="UTF-8"?>
<svg id="Layer_2" data-name="Layer 2" xmlns="http://www.w3.org/2000/svg" viewBox="0 0 1920 1080">
  <defs>
    <style>
      .cls-1 {
        letter-spacing: -.01em;
      }

      .cls-2 {
        fill: #fff;
      }

      .cls-3, .cls-4, .cls-5 {
        fill: #83cce3;
      }

      .cls-6 {
        letter-spacing: 0em;
      }

      .cls-7 {
        stroke: #000;
      }

      .cls-7, .cls-8, .cls-9, .cls-10, .cls-11 {
        fill: none;
        stroke-miterlimit: 10;
      }

      .cls-12 {
        fill: #f6f6f6;
      }

      .cls-13 {
        letter-spacing: 0em;
      }

      .cls-14 {
        letter-spacing: -.01em;
      }

      .cls-15, .cls-4, .cls-16, .cls-17, .cls-18, .cls-19 {
        font-size: 22px;
      }

      .cls-15, .cls-4, .cls-16, .cls-17, .cls-18, .cls-19, .cls-20 {
        font-family: Montserrat-Regular, Montserrat;
      }

      .cls-15, .cls-21, .cls-22 {
        fill: #0075c1;
      }

      .cls-23, .cls-5, .cls-24, .cls-25, .cls-22 {
        font-family: Montserrat-Bold, Montserrat;
        font-weight: 700;
      }

      .cls-23, .cls-5, .cls-25, .cls-22 {
        font-size: 55px;
      }

      .cls-23, .cls-19, .cls-26 {
        fill: #00aebd;
      }

      .cls-27 {
        fill: #129bc5;
      }

      .cls-16, .cls-28, .cls-25 {
        fill: #48aed1;
      }

      .cls-29 {
        letter-spacing: 0em;
      }

      .cls-30 {
        letter-spacing: -.02em;
      }

      .cls-31 {
        fill: #949494;
        font-family: Montserrat-SemiBold, Montserrat;
        font-size: 32px;
        font-weight: 600;
      }

      .cls-17, .cls-24, .cls-20 {
        fill: #4d4d4d;
      }

      .cls-32 {
        letter-spacing: -.01em;
      }

      .cls-18 {
        fill: #949190;
      }

      .cls-33 {
        letter-spacing: 0em;
      }

      .cls-34 {
        letter-spacing: -.01em;
      }

      .cls-35 {
        letter-spacing: 0em;
      }

      .cls-36 {
        fill: #46b1d2;
      }

      .cls-37 {
        fill: #48b0d1;
      }

      .cls-24 {
        font-size: 53px;
      }

      .cls-8 {
        stroke: #c6e9f3;
      }

      .cls-38 {
        letter-spacing: 0em;
      }

      .cls-39 {
        letter-spacing: -.05em;
      }

      .cls-40 {
        letter-spacing: .75em;
      }

      .cls-41 {
        letter-spacing: -.02em;
      }

      .cls-42 {
        letter-spacing: 0em;
      }

      .cls-43 {
        letter-spacing: -.01em;
      }

      .cls-44 {
        letter-spacing: 0em;
      }

      .cls-20 {
        font-size: 45px;
      }

      .cls-9 {
        stroke: #0193c1;
      }

      .cls-45 {
        letter-spacing: 0em;
      }

      .cls-46 {
        letter-spacing: 0em;
      }

      .cls-10 {
        stroke: #cdf3e7;
      }

      .cls-47 {
        letter-spacing: -.01em;
      }

      .cls-48 {
        letter-spacing: 0em;
      }

      .cls-49 {
        letter-spacing: 0em;
      }

      .cls-50 {
        letter-spacing: 0em;
      }

      .cls-11 {
        stroke: #06c189;
      }

      .cls-51 {
        letter-spacing: -.05em;
      }

      .cls-52 {
        letter-spacing: 0em;
      }

      .cls-53 {
        letter-spacing: -.01em;
      }
    </style>
  </defs>
  <g id="Layer_1-2" data-name="Layer 1">
    <rect class="cls-2" width="1920" height="1080"/>
    <text class="cls-24" transform="translate(403.51 144.36)"><tspan class="cls-51" x="0" y="0">W</tspan><tspan x="58.72" y="0">eekly </tspan><tspan class="cls-41" x="223.23" y="0">P</tspan><tspan class="cls-44" x="261.23" y="0">atient R</tspan><tspan class="cls-29" x="480.02" y="0">e</tspan><tspan class="cls-47" x="512.93" y="0">v</tspan><tspan x="543.83" y="0">enue K</tspan><tspan class="cls-29" x="737.96" y="0">P</tspan><tspan x="776.23" y="0">I Dashb</tspan><tspan class="cls-48" x="986.42" y="0">o</tspan><tspan class="cls-44" x="1020.66" y="0">a</tspan><tspan class="cls-45" x="1053.36" y="0">r</tspan><tspan x="1075.73" y="0">d</tspan></text>
    <text class="cls-31" transform="translate(293.56 974.19)"><tspan x="0" y="0">Sat</tspan></text>
    <text class="cls-31" transform="translate(552.8 974.19)"><tspan x="0" y="0">Sun</tspan></text>
    <text class="cls-31" transform="translate(807.67 974.19)"><tspan x="0" y="0">Mon</tspan></text>
    <text class="cls-31" transform="translate(1076.4 974.19)"><tspan class="cls-43" x="0" y="0">T</tspan><tspan x="18.85" y="0">ue</tspan></text>
    <text class="cls-31" transform="translate(1327.42 974.19)"><tspan class="cls-39" x="0" y="0">W</tspan><tspan x="34.85" y="0">ed</tspan></text>
    <text class="cls-31" transform="translate(1591.26 974.19)"><tspan x="0" y="0">Thu</tspan></text>
    <rect class="cls-12" x="120" y="273.08" width="408.28" height="329.04" rx="19.08" ry="19.08"/>
    <text class="cls-20" transform="translate(152.86 353.76)"><tspan class="cls-38" x="0" y="0">C</tspan><tspan x="32" y="0">a</tspan><tspan class="cls-34" x="58.54" y="0">r</tspan><tspan x="76" y="0">diology</tspan></text>
    <text class="cls-22" transform="translate(155.55 427.8)"><tspan x="0" y="0">Rs. 105000</tspan></text>
    <text class="cls-17" transform="translate(156.67 553.04)"><tspan x="0" y="0">Updati</tspan><tspan class="cls-42" x="75.08" y="0">n</tspan><tspan x="90.02" y="0">g Status</tspan></text>
    <text class="cls-15" transform="translate(179.64 518.97)"><tspan class="cls-46" x="0" y="0">+</tspan><tspan class="cls-6" x="12.83" y="0">6.</tspan><tspan class="cls-53" x="31.33" y="0">8</tspan><tspan x="45.14" y="0">%</tspan></text>
    <polygon class="cls-21" points="166.64 503.75 157.96 518.78 175.32 518.78 166.64 503.75"/>
    <rect class="cls-12" x="544" y="273.08" width="408.28" height="329.04" rx="19.08" ry="19.08"/>
    <text class="cls-20" transform="translate(576.86 353.76)"><tspan x="0" y="0">Opt</tspan><tspan class="cls-52" x="86.53" y="0">h</tspan><tspan x="117.09" y="0">o</tspan><tspan class="cls-50" x="145.3" y="0">m</tspan><tspan x="193.14" y="0">ology </tspan></text>
    <text class="cls-23" transform="translate(579.55 427.8)"><tspan x="0" y="0">Rs. 100000</tspan></text>
    <text class="cls-17" transform="translate(580.67 553.04)"><tspan x="0" y="0">Updati</tspan><tspan class="cls-42" x="75.08" y="0">n</tspan><tspan x="90.02" y="0">g Status</tspan></text>
    <text class="cls-19" transform="translate(603.64 518.97)"><tspan class="cls-30" x="0" y="0">-</tspan><tspan class="cls-33" x="8.03" y="0">1</tspan><tspan class="cls-14" x="15.97" y="0">0</tspan><tspan class="cls-6" x="30.29" y="0">.</tspan><tspan class="cls-53" x="35.18" y="0">8</tspan><tspan x="48.99" y="0">%</tspan></text>
    <polygon class="cls-26" points="590.64 518.78 581.96 503.75 599.32 503.75 590.64 518.78"/>
    <rect class="cls-12" x="968" y="273.08" width="408.28" height="329.04" rx="19.08" ry="19.08"/>
    <text class="cls-20" transform="translate(1000.86 353.76)"><tspan x="0" y="0">Gen. P</tspan><tspan class="cls-32" x="146.07" y="0">h</tspan><tspan class="cls-35" x="176.08" y="0">y</tspan><tspan x="200.2" y="0">sician</tspan><tspan class="cls-40" x="328.77" y="0">	</tspan></text>
    <text class="cls-25" transform="translate(1003.55 427.8)"><tspan x="0" y="0">Rs. 125000</tspan></text>
    <text class="cls-17" transform="translate(1004.67 553.04)"><tspan x="0" y="0">Updati</tspan><tspan class="cls-42" x="75.08" y="0">n</tspan><tspan x="90.02" y="0">g Status</tspan></text>
    <text class="cls-16" transform="translate(1027.64 518.97)"><tspan class="cls-46" x="0" y="0">+</tspan><tspan class="cls-6" x="12.83" y="0">6.</tspan><tspan class="cls-53" x="31.33" y="0">8</tspan><tspan x="45.14" y="0">%</tspan></text>
    <polygon class="cls-28" points="1014.64 503.75 1005.96 518.78 1023.32 518.78 1014.64 503.75"/>
    <rect class="cls-12" x="1392" y="273.08" width="408.28" height="329.04" rx="19.08" ry="19.08"/>
    <text class="cls-20" transform="translate(1424.86 353.76)"><tspan class="cls-1" x="0" y="0">P</tspan><tspan x="31.72" y="0">ediat</tspan><tspan class="cls-38" x="146.34" y="0">r</tspan><tspan x="164.02" y="0">ics</tspan></text>
    <text class="cls-5" transform="translate(1427.55 427.8)"><tspan x="0" y="0">Rs. 100000</tspan></text>
    <text class="cls-17" transform="translate(1428.67 553.04)"><tspan x="0" y="0">Updati</tspan><tspan class="cls-42" x="75.08" y="0">n</tspan><tspan x="90.02" y="0">g Status</tspan></text>
    <text class="cls-4" transform="translate(1451.64 518.97)"><tspan class="cls-30" x="0" y="0">+</tspan><tspan x="12.28" y="0">1</tspan><tspan class="cls-6" x="20.22" y="0">2</tspan><tspan x="32.93" y="0">.</tspan><tspan class="cls-53" x="37.6" y="0">5</tspan><tspan x="49.83" y="0">%</tspan></text>
    <polygon class="cls-3" points="1438.64 503.75 1429.96 518.78 1447.32 518.78 1438.64 503.75"/>
    <g>
      <g>
        <line class="cls-9" x1="191.76" y1="929.05" x2="1770.88" y2="929.05"/>
        <g>
          <line class="cls-9" x1="191.76" y1="929.05" x2="191.76" y2="922.83"/>
          <line class="cls-9" x1="454.95" y1="929.05" x2="454.95" y2="922.83"/>
          <line class="cls-9" x1="718.13" y1="929.05" x2="718.13" y2="922.83"/>
          <line class="cls-9" x1="981.32" y1="929.05" x2="981.32" y2="922.83"/>
          <line class="cls-7" x1="1244.51" y1="929.05" x2="1244.51" y2="922.83"/>
          <line class="cls-9" x1="1507.69" y1="929.05" x2="1507.69" y2="922.83"/>
          <line class="cls-9" x1="1770.88" y1="929.05" x2="1770.88" y2="922.83"/>
        </g>
      </g>
      <g>
        <g>
          <text class="cls-18" transform="translate(152.52 937.79)"><tspan x="0" y="0">0</tspan></text>
          <text class="cls-18" transform="translate(154.63 896.36)"><tspan x="0" y="0">5</tspan></text>
          <text class="cls-18" transform="translate(144.58 854.93)"><tspan x="0" y="0">10</tspan></text>
          <text class="cls-18" transform="translate(146.69 813.51)"><tspan x="0" y="0">15</tspan></text>
          <text class="cls-18" transform="translate(140.11 772.08)"><tspan class="cls-49" x="0" y="0">2</tspan><tspan class="cls-13" x="12.41" y="0">0</tspan></text>
          <text class="cls-18" transform="translate(142.14 730.65)"><tspan x="0" y="0">25</tspan></text>
          <text class="cls-18" transform="translate(140.11 689.23)"><tspan x="0" y="0">30</tspan></text>
        </g>
        <line class="cls-9" x1="191.76" y1="929.05" x2="191.76" y2="680.49"/>
        <g>
          <line class="cls-11" x1="191.76" y1="929.05" x2="1770.88" y2="929.05"/>
          <line class="cls-10" x1="191.76" y1="887.62" x2="1770.88" y2="887.62"/>
          <line class="cls-8" x1="191.76" y1="846.2" x2="1770.88" y2="846.2"/>
          <line class="cls-8" x1="191.76" y1="804.77" x2="1770.88" y2="804.77"/>
          <line class="cls-8" x1="191.76" y1="763.34" x2="1770.88" y2="763.34"/>
          <line class="cls-8" x1="191.76" y1="721.92" x2="1770.88" y2="721.92"/>
          <line class="cls-8" x1="191.76" y1="680.49" x2="1770.88" y2="680.49"/>
        </g>
      </g>
      <g>
        <g>
          <rect class="cls-3" x="371.71" y="804.77" width="41.45" height="124.28"/>
          <rect class="cls-3" x="634.9" y="804.77" width="41.45" height="124.28"/>
          <rect class="cls-3" x="898.09" y="721.92" width="41.45" height="207.13"/>
          <rect class="cls-3" x="1161.27" y="763.34" width="41.45" height="165.71"/>
          <rect class="cls-3" x="1424.46" y="804.77" width="41.45" height="124.28"/>
          <rect class="cls-3" x="1687.65" y="846.2" width="41.45" height="82.85"/>
        </g>
        <g>
          <rect class="cls-36" x="325.66" y="680.49" width="41.45" height="248.56"/>
          <rect class="cls-36" x="588.84" y="846.2" width="41.45" height="82.85"/>
          <rect class="cls-36" x="852.03" y="680.49" width="41.45" height="248.56"/>
          <rect class="cls-36" x="1115.22" y="846.2" width="41.45" height="82.85"/>
          <rect class="cls-36" x="1378.4" y="763.34" width="41.45" height="165.71"/>
          <rect class="cls-36" x="1641.59" y="721.92" width="41.45" height="207.13"/>
        </g>
        <g>
          <rect class="cls-37" x="279.6" y="763.34" width="41.45" height="165.71"/>
          <rect class="cls-37" x="542.79" y="763.34" width="41.45" height="165.71"/>
          <rect class="cls-37" x="805.97" y="846.2" width="41.45" height="82.85"/>
          <rect class="cls-37" x="1069.16" y="680.49" width="41.45" height="248.56"/>
          <rect class="cls-37" x="1332.35" y="846.2" width="41.45" height="82.85"/>
          <rect class="cls-37" x="1595.53" y="763.34" width="41.45" height="165.71"/>
        </g>
        <g>
          <rect class="cls-27" x="233.54" y="846.2" width="41.45" height="82.85"/>
          <rect class="cls-27" x="496.73" y="680.49" width="41.45" height="248.56"/>
          <rect class="cls-27" x="759.91" y="763.34" width="41.45" height="165.71"/>
          <rect class="cls-27" x="1023.1" y="804.77" width="41.45" height="124.28"/>
          <rect class="cls-27" x="1286.29" y="721.92" width="41.45" height="207.13"/>
          <rect class="cls-27" x="1549.47" y="804.77" width="41.45" height="124.28"/>
        </g>
      </g>
    </g>
  </g>
</svg>