<?xml version="1.0" encoding="UTF-8"?>
<svg id="Layer_2" data-name="Layer 2" xmlns="http://www.w3.org/2000/svg" viewBox="0 0 350.15 300.42">
  <defs>
    <style>
      .cls-1 {
        fill: #57c1ef;
      }

      .cls-2 {
        fill: #3374ba;
      }
    </style>
  </defs>
  <g id="Layer_1-2" data-name="Layer 1">
    <g>
      <path class="cls-2" d="m142.08,253.58H35.92c-6.08,0-11-4.92-11-11.07V100.73h216.02v75.7l8.77-6.15c4.39-3.08,9.46-4.7,14.77-4.7.46,0,.92,0,1.31.08V63.34c0-18.69-15.15-33.85-33.85-33.85h-7.3v14.24c0,15.39-12.39,27.85-27.77,27.85h-17.08c-15.24,0-27.7-12.46-27.7-27.85v-14.24h-38.31v14.24c0,15.39-12.54,27.85-27.85,27.85h-17c-15.39,0-27.77-12.46-27.77-27.85v-14.24h-5.23C16.08,29.49,0,45.65,0,65.41v177.09c0,19.92,16.08,36.07,35.92,36.07h122.24c-8.84-5.15-15.08-14.38-16.08-25Z"/>
      <path class="cls-2" d="m90.23,125.34c0-2.36-1.92-4.28-4.28-4.28h-34.41c-2.37,0-4.28,1.92-4.28,4.28v18.94c0,2.37,1.92,4.27,4.28,4.27h34.41c2.37,0,4.28-1.91,4.28-4.27v-18.94Z"/>
      <path class="cls-2" d="m85.94,205.75h-34.41c-2.37,0-4.28,1.92-4.28,4.28v18.94c0,2.36,1.92,4.27,4.28,4.27h34.41c2.37,0,4.28-1.92,4.28-4.27v-18.94c0-2.37-1.92-4.28-4.28-4.28Z"/>
      <rect class="cls-2" x="175.57" y="121.06" width="42.97" height="27.5" rx="4.27" ry="4.27"/>
      <path class="cls-2" d="m154.38,125.34c0-2.36-1.91-4.28-4.27-4.28h-34.41c-2.37,0-4.28,1.92-4.28,4.28v18.94c0,2.37,1.92,4.27,4.28,4.27h34.41c2.37,0,4.27-1.91,4.27-4.27v-18.94Z"/>
      <path class="cls-2" d="m111.39,210.04v18.92c0,2.38,1.92,4.3,4.31,4.3h26.23v-6.08c0-8.31,3.07-15.77,8.15-21.46h-34.38c-2.39,0-4.31,1.92-4.31,4.31Z"/>
      <path class="cls-2" d="m90.23,167.69c0-2.37-1.92-4.28-4.28-4.28h-34.41c-2.37,0-4.28,1.92-4.28,4.28v18.94c0,2.36,1.92,4.27,4.28,4.27h34.41c2.37,0,4.28-1.92,4.28-4.27v-18.94Z"/>
      <path class="cls-2" d="m214.27,163.4h-34.42c-2.36,0-4.27,1.92-4.27,4.28v18.94c0,2.36,1.92,4.27,4.27,4.27h34.42c2.36,0,4.27-1.92,4.27-4.27v-18.94c0-2.37-1.92-4.28-4.27-4.28Z"/>
      <path class="cls-2" d="m154.38,186.63v-18.94c0-2.37-1.91-4.28-4.27-4.28h-34.41c-2.37,0-4.28,1.92-4.28,4.28v18.94c0,2.36,1.92,4.27,4.28,4.27h34.41c2.37,0,4.27-1.92,4.27-4.27Z"/>
      <rect class="cls-2" x="59.93" width="35" height="52.75" rx="8.98" ry="8.98"/>
      <rect class="cls-2" x="170.86" y="0" width="35" height="52.75" rx="8.98" ry="8.98"/>
      <path class="cls-1" d="m271.09,221.87v-30.46c0-5.32-5.99-8.44-10.35-5.38l-25.38,17.83c-9.4,6.6-20.59,10.13-32.07,10.13h-28.95c-7.28,0-13.18,5.9-13.18,13.19v23.3c0,7.29,5.9,13.18,13.18,13.18h6.8l5.83,33.15c.37,2.1,2.18,3.62,4.31,3.62h13.25c2.72,0,4.79-2.45,4.31-5.13l-5.56-31.64c11.48,0,22.67,3.54,32.07,10.13l25.38,17.83c4.36,3.06,10.35-.06,10.35-5.38v-30.46c8.86-.62,15.89-7.94,15.89-16.96s-7.02-16.34-15.89-16.96Z"/>
      <path class="cls-1" d="m328.15,186.09c-3.25-3.2-8.47-3.15-11.67.1-1.58,1.6-2.37,3.7-2.37,5.78s.82,4.27,2.46,5.88c10.86,10.67,17.08,25.62,17.08,41.02s-6.05,30.19-17.02,41.16c-3.22,3.22-3.22,8.44,0,11.66,3.22,3.22,8.44,3.22,11.67,0,14.09-14.09,21.85-32.85,21.85-52.82s-8.02-39.03-22-52.78Z"/>
      <path class="cls-1" d="m306.4,207.89c-3.22-3.22-8.44-3.22-11.67,0-1.62,1.62-2.42,3.73-2.42,5.84s.8,4.22,2.42,5.83c10.35,10.36,10.35,28.27,0,38.62-3.22,3.22-3.22,8.44,0,11.67,3.22,3.22,8.44,3.22,11.67,0,8.29-8.29,12.86-19.29,12.86-30.97s-4.57-22.68-12.86-30.98Z"/>
    </g>
  </g>
</svg>