<?xml version="1.0" encoding="UTF-8"?><svg xmlns="http://www.w3.org/2000/svg" viewBox="0 0 187.5 144.04"><g id="a"/><g id="b"><g id="c"><g><polygon points="76.63 46.4 76.63 26.8 57.94 26.8 57.94 46.4 38.34 46.4 38.34 65.09 38.34 65.09 57.94 65.09 57.94 84.69 57.94 84.69 76.63 84.69 76.63 65.09 96.23 65.09 96.23 46.4 76.63 46.4" style="fill:none; stroke:#57c1ef; stroke-miterlimit:10; stroke-width:9px;"/><g><g><path d="M29.63,4.5h126.45c4.42,0,8.01,3.59,8.01,8.01V106.55H21.62V12.51c0-4.42,3.59-8.01,8.01-8.01Z" style="fill:none; stroke:#3374ba; stroke-miterlimit:10; stroke-width:9px;"/><path d="M183,122.73l-18.9-16.18H21.62L4.5,122.73v7.1c0,5.36,4.35,9.71,9.71,9.71H173.29c5.36,0,9.71-4.35,9.71-9.71v-7.1Z" style="fill:none; stroke:#3374ba; stroke-miterlimit:10; stroke-width:9px;"/></g><line x1="31.49" y1="122.73" x2="156.01" y2="122.73" style="fill:none; stroke:#3374ba; stroke-miterlimit:10; stroke-width:9px;"/></g><line x1="104.7" y1="27.03" x2="148.08" y2="27.03" style="fill:none; stroke:#57c1ef; stroke-miterlimit:10; stroke-width:9px;"/><line x1="111.05" y1="46.07" x2="148.08" y2="46.07" style="fill:none; stroke:#57c1ef; stroke-miterlimit:10; stroke-width:9px;"/><line x1="111.05" y1="65.12" x2="148.08" y2="65.12" style="fill:none; stroke:#57c1ef; stroke-miterlimit:10; stroke-width:9px;"/><line x1="99" y1="84.69" x2="148.08" y2="84.69" style="fill:none; stroke:#57c1ef; stroke-miterlimit:10; stroke-width:9px;"/></g></g></g></svg>