<?xml version="1.0" encoding="UTF-8"?>
<svg id="Layer_2" data-name="Layer 2" xmlns="http://www.w3.org/2000/svg" viewBox="0 0 88.93 111.66">
  <defs>
    <style>
      .cls-1 {
        fill: #57c1ef;
        stroke: #57c1ef;
      }

      .cls-1, .cls-2 {
        stroke-miterlimit: 10;
        stroke-width: 2px;
      }

      .cls-2 {
        fill: #3374ba;
        stroke: #3374ba;
      }
    </style>
  </defs>
  <g id="Layer_1-2" data-name="Layer 1">
    <g>
      <path class="cls-2" d="m68.22,15.54c0-.29-.07-.57-.18-.82-1.09-7.75-7.59-13.72-15.44-13.72H16.62C8.77,1,2.28,6.98,1.18,14.72c-.11.25-.18.53-.18.82,0,.15.02.3.05.44-.02.35-.05.69-.05,1.05v77.61c0,8.84,7.01,16.03,15.62,16.03h35.99c8.61,0,15.62-7.19,15.62-16.03v-30.52c0-1.1-.9-2-2-2s-2,.9-2,2v27.21H5V17.54h59.22v2.5c0,1.1.9,2,2,2s2-.9,2-2v-3.02c0-.35-.03-.7-.05-1.05.03-.14.05-.29.05-.44ZM16.62,5h35.99c5.24,0,9.67,3.61,11.12,8.54H5.5c1.45-4.94,5.88-8.54,11.12-8.54Zm35.99,101.66H16.62c-6.18,0-11.24-5.03-11.59-11.33h59.16c-.35,6.31-5.4,11.33-11.59,11.33Z"/>
      <path class="cls-2" d="m38.25,98.86h-5.94c-1.1,0-2,.9-2,2s.9,2,2,2h5.94c1.1,0,2-.9,2-2s-.9-2-2-2Z"/>
    </g>
    <path class="cls-1" d="m32.53,66.88c-.08,0-.17,0-.25-.02-1-.13-1.75-.98-1.75-1.98v-32.68c0-3.65,2.97-6.63,6.61-6.63h44.16c3.65,0,6.63,2.97,6.63,6.63v19.01c0,3.65-2.97,6.63-6.63,6.63h-35.89c-8.92,0-10.93,7.46-10.95,7.53-.23.9-1.03,1.51-1.94,1.51Zm4.61-37.31c-1.44,0-2.61,1.18-2.61,2.63v25.76c2.39-2.28,5.93-4.11,10.88-4.11h35.89c1.45,0,2.63-1.18,2.63-2.63v-19.01c0-1.45-1.18-2.63-2.63-2.63h-44.16Z"/>
  </g>
</svg>