<?xml version="1.0" encoding="UTF-8"?>
<svg id="Layer_2" data-name="Layer 2" xmlns="http://www.w3.org/2000/svg" viewBox="0 0 117.73 95.04">
  <defs>
    <style>
      .cls-1 {
        fill: #57c1ef;
        stroke: #57c1ef;
      }

      .cls-1, .cls-2 {
        stroke-miterlimit: 10;
      }

      .cls-3, .cls-2 {
        fill: #3374ba;
      }

      .cls-2 {
        stroke: #3374ba;
      }
    </style>
  </defs>
  <g id="Layer_1-2" data-name="Layer 1">
    <g>
      <path class="cls-3" d="m14.7,53.38c-6.21,0-11.67-6.54-11.67-14,0-6.77,4.91-11.69,11.67-11.69s11.67,4.92,11.67,11.69c0,7.46-5.45,14-11.67,14Zm0-21.44c-3.73,0-7.5,2.33-7.5,7.52s3.64,9.67,7.5,9.67,7.5-4.7,7.5-9.67-3.77-7.52-7.5-7.52Z"/>
      <path class="cls-2" d="m2.31,94.54c-1,0-1.81-.81-1.81-1.81v-24.71c0-6.79,5.52-12.31,12.31-12.31h8.51c4.27,0,6.72,3.31,8.03,5.09,1.33,1.81,2.87,3.58,4.36,5.3,1.05,1.21,2.07,2.39,2.99,3.54l9.72,12.12s.06.08.09.12c2.11,3.1,1.48,7.37-1.44,9.73-1.36,1.1-2.96,1.69-4.63,1.69-.32,0-.63-.02-.95-.06-1.95-.25-3.67-1.25-4.85-2.82l-8.28-9.27v11.6c0,1-.81,1.81-1.81,1.81-1,0-1.81-.81-1.81-1.81v-16.1c0-1,.81-1.81,1.81-1.81,0,0,.15.01.16.01.61,0,1.08.21,1.42.59l11.27,12.61s.08.09.11.14c.59.81,1.47,1.33,2.46,1.46.16.02.31.03.47.03.84,0,1.63-.28,2.28-.81,1.49-1.21,1.86-3.3.85-4.86l-9.69-12.08c-.88-1.1-1.84-2.21-2.86-3.38-1.57-1.81-3.16-3.64-4.58-5.57-1.41-1.91-2.87-3.62-5.1-3.62h-8.53c-4.79,0-8.68,3.9-8.68,8.68v24.71c0,1-.81,1.81-1.81,1.81Z"/>
      <path class="cls-3" d="m103.04,53.38c-6.21,0-11.67-6.54-11.67-14,0-6.77,4.91-11.69,11.67-11.69s11.67,4.92,11.67,11.69c0,7.46-5.45,14-11.67,14Zm0-21.44c-3.73,0-7.5,2.33-7.5,7.52s3.65,9.68,7.5,9.68,7.5-4.7,7.5-9.68-3.77-7.52-7.5-7.52Z"/>
      <path class="cls-2" d="m115.42,94.54c-1,0-1.81-.81-1.81-1.81v-24.71c0-4.79-3.9-8.68-8.68-8.68h-8.51c-2.25,0-3.7,1.72-5.12,3.62-1.42,1.92-3,3.74-4.53,5.51-1.06,1.23-2.03,2.34-2.91,3.44l-9.66,12.04c-1.02,1.58-.68,3.68.74,4.83.71.57,1.53.88,2.37.88.16,0,.31,0,.47-.03,1-.13,1.87-.65,2.46-1.46.04-.05.07-.09.11-.14l11.27-12.61c.34-.38.82-.59,1.35-.59h.14s.1-.01.1-.01c.99,0,1.8.81,1.8,1.81v16.1c0,1-.82,1.81-1.82,1.81s-1.81-.81-1.81-1.81v-11.6s-8.25,9.24-8.25,9.24c-1.21,1.6-2.93,2.6-4.88,2.85-.32.04-.64.06-.96.06-1.66,0-3.23-.56-4.54-1.62-2.96-2.4-3.63-6.7-1.52-9.8.03-.04.05-.07.08-.11l9.72-12.12c.96-1.19,2.04-2.44,2.99-3.54,1.49-1.72,3.03-3.49,4.36-5.3,1.32-1.78,3.77-5.1,8.02-5.1h8.53c6.79,0,12.31,5.52,12.31,12.31v24.71c0,1-.81,1.81-1.81,1.81Z"/>
      <path class="cls-1" d="m81.55,60.82c-.43,0-.85-.15-1.18-.43l-13.51-11.55h-12.38c-4.07,0-7.39-3.32-7.39-7.39v-6.17c0-1,.81-1.81,1.81-1.81s1.81.81,1.81,1.81v6.17c0,2.08,1.69,3.76,3.76,3.76h13.05c.43,0,.85.15,1.18.43l10.18,8.71-1.22-7.02c-.09-.53.05-1.07.4-1.48.29-.34.7-.57,1.14-.63h.08s.07-.05.07-.05c.7-.35,2.05-1.69,2.18-2.45v-15.93c0-2.08-1.68-3.76-3.76-3.76h-5.48c-1,0-1.81-.81-1.81-1.81s.81-1.81,1.81-1.81h5.48c4.07,0,7.39,3.32,7.39,7.39v15.9c0,1.91-1.72,4.09-3.42,5.25l-.27.18,1.85,10.58c.13.75-.23,1.51-.89,1.89-.27.16-.58.24-.9.24Z"/>
      <path class="cls-1" d="m33.48,41.92c-.32,0-.63-.08-.9-.24-.66-.38-1.02-1.14-.89-1.89l1.85-10.57-.27-.18c-1.7-1.16-3.42-3.34-3.42-5.25V7.89c0-4.07,3.32-7.39,7.39-7.39h23.31c4.07,0,7.39,3.31,7.39,7.39v14.66c0,4.07-3.32,7.39-7.39,7.39h-12.38l-13.51,11.55c-.33.28-.75.43-1.18.43Zm3.76-37.79c-2.08,0-3.76,1.69-3.76,3.76v15.9c.14.82,1.5,2.15,2.19,2.49l.07.04h.08c.45.07.85.3,1.14.64.34.41.49.95.4,1.48l-1.22,7.02,10.19-8.71c.33-.28.75-.44,1.18-.44h13.05c2.08,0,3.76-1.69,3.76-3.76V7.89c0-2.07-1.69-3.76-3.76-3.76h-23.31Z"/>
    </g>
  </g>
</svg>