<?xml version="1.0" encoding="UTF-8"?><svg xmlns="http://www.w3.org/2000/svg" viewBox="0 0 269 230.71"><g id="a"/><g id="b"><g id="c"><g><path d="M114.83,131.77l7.37,10.23c.47,.66,1.21,1.08,2.01,1.14,.8,.09,1.6-.23,2.17-.8l15.96-15.96c.57-.57,.86-1.37,.8-2.17-.07-.8-.48-1.54-1.14-2.02l-10.15-7.31c4.75-6.95,7.99-14.65,9.64-22.91l10.76,1.74c1.14,.21,2.34-.14,3.23-.9,.89-.76,1.41-1.87,1.41-3.04v-19.65c0-1.18-.52-2.3-1.42-3.06-.9-.76-2.06-1.09-3.22-.89l-10.6,1.72c-1.56-8.26-4.78-16.17-9.44-23.16l9.78-7.04c.66-.47,1.07-1.21,1.14-2.02,.06-.8-.23-1.6-.8-2.17l-14.93-14.93c-.83-.83-1.99-1.32-3.15-1.15-1.17,.09-2.23,.7-2.92,1.65l-6.13,8.51c-6.98-4.74-14.9-8.04-23.16-9.66l1.67-10.28c.19-1.16-.14-2.35-.9-3.24-.76-.9-1.88-1.41-3.05-1.41h-19.64c-1.17,0-2.28,.51-3.05,1.41-.76,.9-1.09,2.07-.9,3.24l1.68,10.29c-8.27,1.62-16.18,4.92-23.17,9.66l-6.13-8.51c-.69-.95-1.75-1.56-2.91-1.65-1.17-.16-2.32,.31-3.17,1.15l-13.87,13.88c-.84,.82-1.27,1.98-1.18,3.16,.09,1.18,.7,2.25,1.65,2.93l8.6,6.19c-4.65,6.98-7.88,14.91-9.44,23.16l-10.58-1.72c-1.16-.18-2.34,.13-3.24,.89-.9,.76-1.42,1.87-1.42,3.06v19.65c0,1.17,.51,2.28,1.41,3.04,.89,.76,2.07,1.1,3.24,.9l10.75-1.74c1.66,8.26,4.9,15.96,9.65,22.92l-10.15,7.3c-.66,.47-1.07,1.21-1.14,2.02-.06,.8,.23,1.6,.8,2.17l15.96,15.96c.57,.57,1.36,.89,2.17,.8,.8-.06,1.54-.48,2.01-1.14l7.37-10.23c6.96,4.67,14.65,7.83,22.91,9.43l-2.03,12.5c-.13,.8,.1,1.61,.62,2.23,.52,.62,1.29,.97,2.1,.97h22.57c.81,0,1.57-.35,2.1-.97,.52-.62,.75-1.43,.62-2.23l-2.03-12.5c8.24-1.59,15.93-4.75,22.91-9.43Zm-25.3,4.26c-1.04,.17-1.96,.72-2.58,1.57-.63,.86-.89,1.92-.71,2.98l1.76,10.81h-16.1l1.76-10.82c.17-1.05-.08-2.11-.71-2.97-.62-.85-1.54-1.41-2.56-1.57-8.5-1.43-16.37-4.67-23.38-9.6-1.76-1.28-4.24-.87-5.52,.9l-6.36,8.82-11.38-11.38,8.74-6.31c1.78-1.27,2.19-3.75,.91-5.54-5.04-7.02-8.36-14.88-9.85-23.39-.38-2.14-2.41-3.61-4.54-3.24l-10.49,1.7v-16.09l10.36,1.68c1.06,.17,2.12-.09,2.98-.72,.84-.62,1.4-1.54,1.57-2.58,1.44-8.84,5-17.34,10.3-24.56,.43-.59,.62-1.33,.5-2.06-.11-.72-.52-1.38-1.11-1.81l-9.36-6.74,11.38-11.38,6.7,9.29c.43,.6,1.09,1,1.81,1.12,.73,.11,1.48-.08,2.07-.52,7.54-5.63,16.43-9.34,25.71-10.72,.73-.11,1.38-.51,1.82-1.1,.43-.59,.61-1.33,.49-2.07l-1.83-11.23h16.1l-1.83,11.23c-.12,.73,.06,1.48,.49,2.07,.43,.59,1.09,.99,1.82,1.1,9.28,1.38,18.17,5.09,25.71,10.72,.6,.44,1.33,.63,2.07,.52,.73-.11,1.38-.52,1.81-1.12l6.7-9.29,11.38,11.38-9.36,6.74c-.6,.43-1,1.08-1.11,1.81s.07,1.47,.5,2.06c5.53,7.55,9.16,16.44,10.47,25.72,.1,.73,.5,1.39,1.09,1.83,.59,.44,1.33,.6,2.07,.5l11.56-1.87v16.09l-10.49-1.7c-2.17-.37-4.17,1.11-4.54,3.24-1.5,8.51-4.81,16.38-9.85,23.38-.63,.88-.88,1.93-.7,2.98,.17,1.05,.74,1.96,1.6,2.58l8.75,6.31-11.38,11.38-6.36-8.83c-1.27-1.76-3.74-2.17-5.51-.91-7.03,4.96-14.9,8.19-23.37,9.62Z" style="fill:#3374ba; stroke:#3374ba; stroke-miterlimit:10; stroke-width:6px;"/><path d="M79.95,40.49c-21.76,0-39.47,17.7-39.47,39.46s17.7,39.47,39.47,39.47,39.46-17.7,39.46-39.47-17.7-39.46-39.46-39.46Zm0,73.42c-18.73,0-33.96-15.24-33.96-33.96s15.23-33.95,33.96-33.95,33.95,15.23,33.95,33.95-15.23,33.96-33.95,33.96Z" style="fill:#57c1ef; stroke:#57c1ef; stroke-miterlimit:10; stroke-width:6px;"/><path d="M265.38,91.25c-.11-1.05-.69-2-1.57-2.59-.88-.6-1.97-.77-2.98-.48l-6.03,1.69c-1.66-5-4.24-9.68-7.56-13.75l4.61-4.18c.79-.71,1.22-1.73,1.18-2.79-.04-1.06-.53-2.04-1.35-2.69l-10.43-8.32c-.83-.66-1.91-.9-2.94-.71-1.04,.21-1.93,.86-2.43,1.77l-3.05,5.42c-4.72-2.33-9.85-3.8-15.09-4.31l.31-6.26c.05-1.05-.36-2.07-1.13-2.8-.77-.72-1.81-1.05-2.87-.96l-13.24,1.49c-1.05,.11-1.99,.69-2.59,1.56-.6,.88-.77,1.97-.49,2.99l1.71,6.1c-4.96,1.7-9.61,4.3-13.64,7.63l-4.31-4.76c-.71-.79-1.71-1.33-2.79-1.18-1.06,.04-2.04,.53-2.69,1.35l-8.32,10.43c-.65,.82-.91,1.89-.71,2.93,.2,1.04,.84,1.93,1.77,2.45l5.7,3.2c-2.31,4.71-3.73,9.73-4.22,14.96l-7.62-.38c-.87,0-1.59,.28-2.14,.87-.55,.59-.82,1.39-.73,2.19l1.71,15.21c.09,.8,.53,1.53,1.2,1.97,.67,.46,1.51,.58,2.28,.37l7.42-2.08c1.67,4.95,4.2,9.48,7.51,13.53l-5.74,5.19c-.6,.55-.93,1.32-.9,2.13s.41,1.56,1.04,2.07l11.98,9.55c.63,.51,1.44,.71,2.25,.55,.79-.16,1.48-.65,1.88-1.36l3.79-6.75c4.68,2.34,9.66,3.79,14.86,4.32l-.38,7.7c-.04,.81,.28,1.59,.86,2.14,.51,.48,1.19,.75,1.89,.75,.1,0,.2,0,.31-.01l15.22-1.71c.8-.09,1.52-.53,1.98-1.21,.45-.67,.58-1.5,.37-2.28l-2.06-7.34c4.99-1.64,9.56-4.14,13.64-7.44l4.4,4.85c.72,.79,1.73,1.38,2.79,1.18,1.06-.04,2.04-.53,2.7-1.36l8.32-10.42c.65-.83,.91-1.89,.71-2.92-.2-1.03-.84-1.93-1.77-2.46l-5.61-3.15c2.36-4.68,3.86-9.78,4.42-14.99l7.33,.36c.8-.09,1.59-.29,2.14-.87,.55-.59,.82-1.39,.73-2.2l-1.6-14.22Zm-11.01,11.29c-.79-.09-1.45,.22-1.99,.72-.54,.5-.86,1.18-.89,1.92-.25,6.2-2.06,12.31-5.21,17.66-.38,.64-.48,1.4-.29,2.12,.19,.72,.67,1.32,1.31,1.69l6.02,3.39-5.52,6.91-4.14-4.57c-1.32-1.45-3.56-1.57-5.02-.27-4.3,3.79-9.27,6.5-14.8,8.06-1.91,.55-2.99,2.48-2.46,4.41l1.69,6.04-8.78,.99,.31-6.34c.09-1.94-1.42-3.62-3.37-3.74-5.7-.34-11.11-1.92-16.1-4.68-.55-.3-1.15-.45-1.74-.45-1.25,0-2.47,.66-3.13,1.82l-3.13,5.57-6.91-5.52,4.73-4.28c1.46-1.33,1.57-3.59,.26-5.04-3.81-4.25-6.55-9.19-8.15-14.68-.56-1.89-2.47-2.92-4.4-2.44l-6.11,1.71-.99-8.78,6.28,.31c2.08,.05,3.65-1.45,3.74-3.41,.29-5.72,1.83-11.17,4.56-16.18,.94-1.7,.34-3.87-1.37-4.86l-5.38-3.02,5.52-6.91,4.09,4.51c1.32,1.44,3.58,1.56,5.05,.22,4.39-3.98,9.75-6.92,15.49-8.46,.71-.19,1.31-.66,1.67-1.3,.36-.64,.46-1.4,.26-2.11l-1.83-6.53,8.79-.99-.33,6.72c-.04,.74,.23,1.46,.72,2,.5,.55,1.2,.87,1.94,.89,6.22,.19,12.37,1.95,17.76,5.06,.64,.38,1.4,.47,2.11,.27,.71-.19,1.31-.66,1.67-1.31l3.27-5.82,6.91,5.52-4.95,4.48c-.55,.5-.87,1.19-.9,1.93-.03,.73,.23,1.45,.74,1.99,4.24,4.55,7.31,10.15,8.89,16.18,.19,.72,.65,1.33,1.29,1.69,.64,.37,1.4,.46,2.11,.27l6.48-1.81,.99,8.78-6.78-.33Z" style="fill:#3374ba; stroke:#3374ba; stroke-miterlimit:10; stroke-width:4px;"/><path d="M230.61,82.18c-11.92-9.51-29.36-7.56-38.88,4.38-4.61,5.77-6.69,13-5.86,20.34,.82,7.34,4.46,13.92,10.24,18.53,4.95,3.95,10.96,6.04,17.2,6.04,1.04,0,2.09-.06,3.15-.17,7.34-.82,13.93-4.46,18.53-10.24,4.61-5.77,6.69-13,5.86-20.34-.82-7.34-4.46-13.92-10.24-18.53Zm.07,35.44c-7.63,9.55-21.58,11.13-31.14,3.5-4.63-3.69-7.54-8.97-8.2-14.84-.66-5.88,1-11.67,4.69-16.3,4.37-5.47,10.83-8.33,17.34-8.33,4.85,0,9.72,1.58,13.79,4.83,4.63,3.69,7.54,8.97,8.2,14.84,.66,5.88-1,11.67-4.69,16.3Z" style="fill:#57c1ef; stroke:#57c1ef; stroke-miterlimit:10; stroke-width:4px;"/><path d="M192.77,173.65c-.66-.44-2.05-.66-2.82-.44l-4.26,1.19c-1.28-3.65-3.17-7.09-5.57-10.14l3.27-2.96c.74-.68,1.14-1.64,1.11-2.64-.03-.81-.66-2.06-1.29-2.56l-8.25-6.59c-.79-.62-1.81-.88-2.8-.69-.79,.16-1.93,.98-2.32,1.69l-2.16,3.83c-3.5-1.67-7.27-2.75-11.12-3.18l.22-4.4c.05-1-.33-1.97-1.06-2.65-.59-.56-1.93-1.02-2.74-.93l-10.47,1.18c-1,.11-1.9,.65-2.47,1.47-.46,.67-.69,2.07-.47,2.86l1.21,4.32c-3.63,1.31-7.04,3.21-10.05,5.62l-3.04-3.36c-.67-.75-1.64-1.18-2.64-1.14-.81,.02-2.07,.65-2.58,1.29l-6.59,8.25c-.63,.79-.88,1.81-.68,2.8,.16,.79,.98,1.93,1.68,2.32l4.05,2.28c-1.65,3.49-2.69,7.19-3.11,11.01l-5.49-.27c-.8,.03-1.59,.28-2.14,.87-.55,.59-.82,1.39-.73,2.2l1.36,12.06c.09,.8,.53,1.53,1.2,1.97,.67,.46,1.5,.57,2.28,.37l5.36-1.5c1.29,3.62,3.15,6.96,5.53,9.96l-4.15,3.75c-.6,.55-.93,1.32-.9,2.13,.03,.81,.41,1.56,1.04,2.07l9.49,7.57c.63,.5,1.44,.72,2.25,.55,.79-.16,1.48-.65,1.88-1.36l2.74-4.88c3.46,1.66,7.13,2.73,10.94,3.18l-.27,5.56c-.04,.81,.28,1.59,.86,2.14,.52,.48,1.19,.75,1.89,.75,.1,0,.2,0,.31-.01l12.06-1.36c.8-.09,1.52-.53,1.98-1.21,.45-.67,.58-1.5,.37-2.28l-1.48-5.29c3.65-1.26,7.02-3.1,10.05-5.47l3.13,3.45c.55,.6,1.81,1.18,2.64,1.11,.8-.03,2.06-.66,2.56-1.28l6.6-8.27c.62-.8,.86-1.81,.66-2.8-.16-.79-.98-1.92-1.68-2.31l-3.97-2.23c1.68-3.47,2.78-7.22,3.25-11.05l5.27,.26c.8-.07,1.59-.29,2.14-.87,.55-.59,.82-1.39,.73-2.19l-1.27-11.28c-.11-1-.66-1.9-1.51-2.46Zm-7.76,10.91c-.77-.08-1.45,.22-1.99,.72-.54,.49-.86,1.18-.89,1.92-.2,4.83-1.6,9.58-4.05,13.73-.37,.64-.48,1.4-.29,2.12,.19,.72,.67,1.32,1.31,1.69l4.18,2.35-3.53,4.43-2.83-3.13c-1.26-1.38-3.35-1.49-4.78-.26-3.33,2.95-7.19,5.05-11.49,6.26-1.79,.51-2.85,2.39-2.35,4.2l1.16,4.14-5.63,.64,.22-4.35c.09-1.86-1.34-3.46-3.2-3.57-4.42-.27-8.63-1.49-12.49-3.63-.45-.25-1.2-.41-1.85-.41-.27,0-.52,.03-.73,.09-.71,.19-1.71,.97-2.07,1.61l-2.15,3.82-4.42-3.53,3.25-2.95c1.38-1.25,1.49-3.41,.24-4.8-2.96-3.3-5.09-7.13-6.33-11.4-.53-1.8-2.43-2.84-4.19-2.32l-4.19,1.18-.63-5.62,4.33,.22c1.83,.04,3.43-1.34,3.54-3.24,.22-4.45,1.42-8.68,3.55-12.59,.9-1.65,.33-3.67-1.31-4.61l-3.68-2.07,3.53-4.42,2.79,3.08c1.27,1.36,3.42,1.48,4.81,.21,3.46-3.13,7.51-5.35,12.04-6.58,.71-.19,1.31-.66,1.67-1.31,.36-.64,.46-1.39,.26-2.1l-1.27-4.53,5.62-.63-.23,4.65c-.04,.74,.23,1.46,.73,2,.5,.55,1.2,.87,1.94,.89,4.84,.15,9.61,1.51,13.8,3.94,.64,.37,1.4,.5,2.11,.27,.71-.19,1.31-.66,1.67-1.31l2.26-4.02,4.43,3.53-3.43,3.1c-.55,.49-.87,1.19-.9,1.93-.03,.73,.23,1.45,.73,1.99,3.3,3.56,5.69,7.9,6.92,12.58,.19,.72,.65,1.33,1.29,1.69,.63,.37,1.4,.45,2.11,.27l4.49-1.26,.63,5.62-4.7-.23Z" style="fill:#3374ba; stroke:#3374ba; stroke-miterlimit:10; stroke-width:3px;"/><path d="M166.52,168.56c-4.7-3.75-10.57-5.45-16.54-4.77-5.97,.67-11.32,3.63-15.06,8.33-3.75,4.69-5.44,10.57-4.77,16.53,.67,5.98,3.63,11.32,8.32,15.06,4.02,3.21,8.91,4.91,13.98,4.91,.85,0,1.7-.04,2.56-.14,5.97-.67,11.32-3.63,15.06-8.33,3.75-4.69,5.44-10.57,4.77-16.53-.67-5.97-3.63-11.32-8.32-15.06Zm-.75,28.17c-2.83,3.54-6.87,5.77-11.38,6.28-4.52,.51-8.94-.77-12.49-3.6-3.55-2.83-5.78-6.86-6.29-11.38-.51-4.5,.77-8.94,3.6-12.49,2.83-3.54,6.87-5.77,11.38-6.28,.65-.07,1.29-.11,1.93-.11,3.83,0,7.52,1.28,10.56,3.71,3.54,2.83,5.78,6.86,6.28,11.38,.51,4.5-.77,8.94-3.6,12.49Z" style="fill:#57c1ef; stroke:#57c1ef; stroke-miterlimit:10; stroke-width:3px;"/></g></g></g></svg>