<?xml version="1.0" encoding="UTF-8"?>
<svg id="Layer_2" data-name="Layer 2" xmlns="http://www.w3.org/2000/svg" viewBox="0 0 171 171.3">
  <defs>
    <style>
      .cls-1, .cls-2 {
        stroke: #3374ba;
      }

      .cls-1, .cls-2, .cls-3, .cls-4 {
        fill: none;
        stroke-linecap: round;
        stroke-linejoin: round;
      }

      .cls-1, .cls-3 {
        stroke-width: 10px;
      }

      .cls-2 {
        stroke-width: 10px;
      }

      .cls-3, .cls-4 {
        stroke: #57c1ef;
      }

      .cls-4 {
        stroke-width: 9px;
      }
    </style>
  </defs>
  <g id="Layer_1-2" data-name="Layer 1">
    <g>
      <path class="cls-1" d="m49.45,104.48c-2.95-.43-5.83-1.09-8.6-1.97-5.88,5.93-9.13,8.04-19.76,13.86l-.1-25.37c-9.85-9.09-15.98-21.85-15.98-35.97C5,27.4,28.45,5,57.37,5c24.18,0,44.54,15.66,50.56,36.93"/>
      <path class="cls-3" d="m44.89,32.28c5.62-10.4,21.42-11.06,21.42,3.26,0,9.77-12.14,9.18-12.14,21.03"/>
      <path class="cls-3" d="m54.16,70.67c-.06.53-.09,1.09-.09,1.67"/>
      <path class="cls-2" d="m149.92,166.3l.1-25.37c9.85-9.09,15.98-21.85,15.98-35.97,0-27.63-23.45-50.02-52.37-50.02s-52.37,22.4-52.37,50.02,23.45,50.02,52.37,50.02c5.77,0,11.33-.9,16.52-2.54,5.88,5.93,9.13,8.04,19.76,13.86"/>
      <polyline class="cls-4" points="95.82 110.15 107.74 125.71 132.1 94.19"/>
      <path class="cls-3" d="m112.24,70.67c21.93,0,39.72,16.99,39.72,37.94"/>
    </g>
  </g>
</svg>