<?xml version="1.0" encoding="UTF-8"?>
<svg id="Layer_2" data-name="Layer 2" xmlns="http://www.w3.org/2000/svg" viewBox="0 0 254.38 278.84">
  <defs>
    <style>
      .cls-1 {
        fill: #57c1ef;
      }

      .cls-2 {
        fill: #3374ba;
      }
    </style>
  </defs>
  <g id="Layer_1-2" data-name="Layer 1">
    <g>
      <path class="cls-2" d="m127.19,24.47h-36.69l9.89-9.89c3.34-3.33,3.34-8.74,0-12.07-3.34-3.34-8.74-3.34-12.07,0l-24.47,24.47c-1.6,1.6-2.5,3.77-2.5,6.04s.9,4.44,2.5,6.04l24.47,24.47c1.67,1.67,3.85,2.5,6.04,2.5s4.37-.83,6.04-2.5c3.34-3.34,3.34-8.74,0-12.07l-9.89-9.89h36.69c60.72,0,110.11,49.39,110.11,110.11s-49.4,110.11-110.11,110.11S17.08,212.37,17.08,151.66c0-30.83,12.42-59.42,34.96-80.48,3.44-3.22,3.63-8.63.41-12.07-3.22-3.44-8.62-3.61-12.07-.41C14.72,82.68,0,116.56,0,151.66c0,70.13,57.05,127.19,127.19,127.19s127.19-57.05,127.19-127.19S197.32,24.47,127.19,24.47Z"/>
      <path class="cls-1" d="m127.19,228.89c42.66,0,77.24-34.58,77.24-77.24s-34.58-77.24-77.24-77.24-77.24,34.58-77.24,77.24,34.58,77.24,77.24,77.24Zm-33.45-86.69c4.24-4.22,11.11-4.22,15.35,0l10.69,10.7,25.51-25.52c4.24-4.22,11.11-4.22,15.35,0,4.23,4.24,4.23,11.11,0,15.35l-33.19,33.19c-2.12,2.11-4.9,3.17-7.67,3.17s-5.56-1.06-7.67-3.17l-18.37-18.37c-4.23-4.24-4.23-11.11,0-15.35Z"/>
    </g>
  </g>
</svg>