<?xml version="1.0" encoding="UTF-8"?>
<svg id="Layer_2" data-name="Layer 2" xmlns="http://www.w3.org/2000/svg" viewBox="0 0 228.41 271.52">
  <defs>
    <style>
      .cls-1 {
        fill: #14a0de;
      }

      .cls-2 {
        fill: #203a72;
        fill-rule: evenodd;
      }
    </style>
  </defs>
  <g id="Layer_1-2" data-name="Layer 1">
    <g>
      <path class="cls-1" d="m218.38,46.77h-3.4v-16.49c0-15.31-11.34-28.7-26.58-30.14-17.48-1.65-32.24,12.12-32.24,29.27v17.36h-3.4c-5.54,0-10.03,4.49-10.03,10.03v44.17c0,5.54,4.49,10.02,10.02,10.02h65.63c5.54,0,10.03-4.49,10.03-10.03v-44.16c0-5.54-4.49-10.03-10.03-10.03Zm-46.54-17.36c0-7.57,6.16-13.73,13.73-13.73s13.73,6.16,13.73,13.73v17.36h-27.46v-17.36Zm33.22,43.57l-20.14,20.14c-1.11,1.11-2.61,1.73-4.18,1.73s-3.07-.62-4.18-1.73l-10.48-10.48c-2.3-2.31-2.3-6.04,0-8.35,2.31-2.31,6.04-2.31,8.35,0l6.3,6.3,15.96-15.96c2.31-2.31,6.05-2.31,8.36,0,2.3,2.31,2.3,6.04,0,8.35Z"/>
      <path class="cls-2" d="m156.84,172.6v18.75l18.82,7.76c3.15,1.32,5.2,4.39,5.2,7.76v19.55c8.79,3.37,15.01,11.79,15.01,21.75,0,12.89-10.47,23.36-23.43,23.36s-23.36-10.47-23.36-23.36c0-9.96,6.22-18.38,14.94-21.75v-13.91l-18.82-7.76c-3.15-1.32-5.2-4.39-5.2-7.76v-24.38h-22.85v53.82c8.79,3.37,15.01,11.79,15.01,21.75,0,12.89-10.47,23.36-23.43,23.36s-23.36-10.47-23.36-23.36c0-9.96,6.22-18.38,14.94-21.75v-53.82h-22.85v24.38c0,3.37-2.05,6.44-5.2,7.76l-18.82,7.76v13.91c8.79,3.37,15.01,11.79,15.01,21.75,0,12.89-10.47,23.36-23.43,23.36s-23.36-10.47-23.36-23.36c0-9.96,6.22-18.38,14.94-21.75v-19.55c0-3.37,2.05-6.45,5.2-7.76l18.82-7.76v-18.75h-14.72c-25.34,0-45.91-20.58-45.91-45.91s20.58-45.91,45.91-45.91c1.39,0,2.78.07,4.1.22,6.37-26.65,30.17-46.43,58.73-46.43,9.23,0,17.87,2.05,25.7,5.78-3.95,4.32-6.37,10.1-6.37,16.48v44.16c0,13.54,11.06,24.67,24.68,24.67h64.36c.29,1.91.44,3.88.44,5.86,0,22.7-18.38,41.08-41.08,41.08h-19.62Z"/>
    </g>
  </g>
</svg>