<?xml version="1.0" encoding="UTF-8"?>
<svg id="Layer_2" data-name="Layer 2" xmlns="http://www.w3.org/2000/svg" viewBox="0 0 282.9 264.69">
  <defs>
    <style>
      .cls-1 {
        fill: #14a0de;
      }

      .cls-2 {
        fill: #203a72;
      }
    </style>
  </defs>
  <g id="Layer_1-2" data-name="Layer 1">
    <g>
      <path class="cls-2" d="m129.4,0C58.03,0,0,58.03,0,129.4s58.03,129.32,129.4,129.32c6.74,0,13.41-.53,19.92-1.51-.38-1.89-.61-3.94-.61-5.99v-16.21c-3.64,3.26-7.5,5.53-11.52,6.82v-49.32h11.52v-.76c0-5.38,1.29-10.45,3.64-14.92h-15.15v-39.63h32.27c1.82-5.6,4.39-10.91,7.88-15.68h-40.15v-39.62h40.61c2.35,10.45,3.94,21.67,4.55,33.41.45-.61.98-1.14,1.59-1.74,3.94-3.94,8.41-7.27,13.18-9.92-.76-7.5-1.82-14.77-3.26-21.74h38.86c2.35,5.15,4.39,10.53,5.91,16.14,6.44,1.44,12.42,4.09,17.8,7.65C245.38,45.61,192.58,0,129.4,0Zm-39.62,22.73c-8.71,11.21-15.91,26.06-20.98,43.56h-34.02c13.18-19.77,32.42-35.15,55-43.56Zm-63.79,59.17h38.94c-2.5,12.35-4.17,25.68-4.55,39.62H15.91c.98-14.02,4.55-27.43,10.08-39.62Zm-10.08,55.3h44.47c.38,13.94,2.05,27.27,4.55,39.63H25.98c-5.53-12.2-9.09-25.61-10.08-39.63Zm18.86,55.31h34.02c5.08,17.42,12.27,32.27,20.98,43.48-22.58-8.41-41.82-23.79-55-43.48Zm86.74,49.32c-14.92-4.85-28.03-23.49-36.36-49.32h36.36v49.32Zm0-65h-40.53c-2.73-12.27-4.47-25.68-5-39.63h45.53v39.63Zm0-55.31h-45.53c.53-14.02,2.27-27.35,5-39.62h40.53v39.62Zm0-55.23h-36.36c8.33-25.91,21.44-44.55,36.36-49.39v49.39Zm15.68,0V16.89c14.92,4.85,28.11,23.49,36.36,49.39h-36.36Zm52.8,0c-5.15-17.5-12.27-32.35-20.99-43.56,22.58,8.41,41.74,23.79,54.92,43.56h-33.94Z"/>
      <path class="cls-1" d="m269.41,178.28h-4.58v-22.19c0-20.59-15.25-38.62-35.75-40.55-23.52-2.22-43.38,16.31-43.38,39.39v23.35h-4.58c-7.45,0-13.49,6.04-13.49,13.49v59.42c0,7.45,6.04,13.48,13.48,13.48h88.3c7.45,0,13.49-6.04,13.49-13.49v-59.42c0-7.45-6.04-13.49-13.49-13.49Zm-62.62-23.35c0-10.19,8.29-18.47,18.47-18.47s18.47,8.28,18.47,18.47v23.35h-36.94v-23.35Zm44.69,58.62l-27.09,27.09c-1.49,1.49-3.51,2.33-5.62,2.33s-4.13-.84-5.62-2.33l-14.1-14.11c-3.1-3.1-3.1-8.13,0-11.23s8.13-3.1,11.24,0l8.48,8.48,21.47-21.47c3.1-3.1,8.14-3.1,11.24,0,3.1,3.1,3.1,8.13,0,11.23Z"/>
    </g>
  </g>
</svg>