<?xml version="1.0" encoding="UTF-8"?>
<svg id="Layer_2" data-name="Layer 2" xmlns="http://www.w3.org/2000/svg" viewBox="0 0 264.1 277.39">
  <defs>
    <style>
      .cls-1 {
        fill: #14a0de;
      }

      .cls-2 {
        fill: #203a72;
      }
    </style>
  </defs>
  <g id="Layer_1-2" data-name="Layer 1">
    <g>
      <g>
        <path class="cls-2" d="m203.17,133.92c-3.03,0-6.06-.2-8.99-.59v10.56c0,63.82-73.69,109.16-90.1,118.54-16.42-9.28-90.1-54.63-90.1-118.54v-63.03c53.06-7.14,79.26-32.54,90.1-46.91,5.08,6.64,13.29,15.64,26,24.04.1-5.38.88-10.56,2.25-15.54-15.64-11.92-21.4-23.55-21.89-24.43-2.34-4.89-10.36-4.89-12.7,0-.2.49-20.62,42.41-91.47,49.64-3.52.39-6.25,3.32-6.25,6.94v69.29c0,79.94,96.75,130.56,100.85,132.71,1.08.49,2.15.78,3.23.78s2.25-.29,3.23-.78c4.1-2.15,100.85-52.77,100.85-132.71v-10.26c-1.66.2-3.32.29-4.98.29Z"/>
        <path class="cls-2" d="m139.53,131.81h-3.65v-17.68c0-16.41-12.15-30.77-28.49-32.31-18.75-1.76-34.57,13-34.57,31.38v18.61h-3.65c-5.94,0-10.75,4.81-10.75,10.75v47.35c0,5.94,4.81,10.75,10.75,10.75h70.36c5.94,0,10.75-4.81,10.75-10.75v-47.34c0-5.94-4.81-10.75-10.75-10.75Zm-26.72,49.79c.2.74.04,1.51-.43,2.11-.46.6-1.17.95-1.93.95h-12.19c-.76,0-1.47-.35-1.93-.95-.47-.6-.62-1.37-.43-2.11l3.93-14.87c-3.25-1.66-5.5-5.01-5.5-8.9,0-5.53,4.5-10.03,10.03-10.03s10.03,4.5,10.03,10.03c0,3.89-2.25,7.24-5.5,8.9l3.93,14.87Zm6.26-49.79h-29.44v-18.61c0-8.12,6.6-14.72,14.72-14.72s14.72,6.6,14.72,14.72v18.61Z"/>
      </g>
      <path class="cls-1" d="m203.45,0c-33.5,0-60.66,27.15-60.66,60.66s27.16,60.65,60.66,60.65,60.65-27.15,60.65-60.65S236.94,0,203.45,0Zm28.44,52.63l-31.44,31.44c-1.68,1.68-3.88,2.51-6.08,2.51s-4.4-.84-6.08-2.51l-15.63-15.62c-3.36-3.36-3.36-8.8,0-12.16,3.36-3.36,8.8-3.36,12.16,0l9.55,9.54,25.37-25.36c3.36-3.36,8.8-3.36,12.16,0,3.36,3.36,3.36,8.8,0,12.16Z"/>
    </g>
  </g>
</svg>