<?xml version="1.0" encoding="UTF-8"?>
<svg id="Layer_2" data-name="Layer 2" xmlns="http://www.w3.org/2000/svg" viewBox="0 0 276.01 247.69">
  <defs>
    <style>
      .cls-1 {
        fill: #203b72;
      }

      .cls-2 {
        fill: #1e9fda;
      }
    </style>
  </defs>
  <g id="Layer_1-2" data-name="Layer 1">
    <g>
      <path class="cls-1" d="m273.17,57.38l-12.26-30.19v-13.55c0-7.53-6.11-13.64-13.64-13.64H28.74c-7.53,0-13.64,6.11-13.64,13.64v13.56L2.84,57.41c-3.43,8.44-3.93,17.97-.52,26.42,5.34,13.25,17.94,21.5,31.7,21.5,10.08,0,19.25-4.4,25.55-11.56,6.47,7.34,15.64,11.56,25.52,11.56h1.89c9.7,0,18.57-4.18,24.83-10.86,6.43,6.9,15.5,10.86,24.94,10.86h2.53c9.44,0,18.51-3.96,24.94-10.87,6.27,6.68,15.13,10.87,24.84,10.87h1.89c9.87,0,19.04-4.22,25.51-11.57,6.3,7.16,15.47,11.57,25.55,11.57,13.76,0,26.36-8.25,31.7-21.51,3.4-8.46,2.9-17.99-.53-26.44Z"/>
      <path class="cls-2" d="m216.44,114.06c-7.65,4.59-16.44,7.06-25.52,7.06h-1.88c-8.74,0-17.33-2.37-24.83-6.71-7.5,4.34-16.14,6.71-24.93,6.71h-2.52c-8.84,0-17.43-2.37-24.98-6.71-7.5,4.34-16.09,6.71-24.83,6.71h-1.88c-9.08,0-17.87-2.47-25.52-7.06-7.65,4.59-16.44,7.06-25.52,7.06-5.48,0-10.76-.89-15.75-2.57v119.27c0,5.48,4.44,9.87,9.87,9.87h29.42v-88.76c0-3.95,3.21-7.11,7.11-7.11h38.31c3.95,0,7.11,3.16,7.11,7.11v88.76h137.73c5.48,0,9.87-4.39,9.87-9.87v-119.22c-4.94,1.63-10.22,2.52-15.7,2.52-9.08,0-17.92-2.47-25.57-7.06Zm1.98,79.03c0,3.95-3.16,7.11-7.11,7.11h-65.21c-3.95,0-7.11-3.16-7.11-7.11v-34.16c0-3.95,3.16-7.11,7.11-7.11h65.21c3.95,0,7.11,3.16,7.11,7.11v34.16Z"/>
    </g>
  </g>
</svg>