<?xml version="1.0" encoding="UTF-8"?>
<svg id="Layer_2" data-name="Layer 2" xmlns="http://www.w3.org/2000/svg" viewBox="0 0 265.54 276.35">
  <defs>
    <style>
      .cls-1 {
        fill: #14a0de;
      }

      .cls-2 {
        fill: #203a72;
      }
    </style>
  </defs>
  <g id="Layer_1-2" data-name="Layer 1">
    <g>
      <path class="cls-2" d="m139.07,122.47c-12.16,8.16-26.74,12.94-42.45,12.94s-30.21-4.77-42.37-12.94C22.14,138.09,0,171.17,0,209.28v12.76c0,9.2,7.47,16.67,16.58,16.67h122.57v-28.3c0-10.5,6.16-20.14,15.8-24.57.17,0,.35-.09.44-.17v-5.12c0-13.63,4.95-26.13,13.19-35.85-8.33-9.2-18.32-16.75-29.51-22.22Z"/>
      <path class="cls-2" d="m96.65,118.05c32.61,0,59.03-26.42,59.03-59.03S129.26,0,96.65,0s-59.03,26.42-59.03,59.03,26.43,59.03,59.03,59.03Z"/>
      <path class="cls-1" d="m259.93,201.7c-3.34-1.51-6.84-2.88-10.66-4.17v-17c0-21.09-17.16-38.25-38.25-38.25s-38.24,17.16-38.24,38.25v17c-3.81,1.29-7.31,2.66-10.66,4.17-3.41,1.54-5.61,4.96-5.61,8.7v56.4c0,5.26,4.29,9.55,9.55,9.55h89.94c5.26,0,9.55-4.29,9.55-9.55v-56.4c0-3.74-2.2-7.16-5.61-8.7Zm-65.17-21.17c0-8.97,7.29-16.27,16.26-16.27s16.28,7.3,16.28,16.27v11.89c-10.83-1.49-21.73-1.49-32.54,0v-11.9Zm40.2,47.82l-24.33,24.32c-1.58,1.58-3.65,2.37-5.72,2.37s-4.15-.79-5.73-2.37l-12.08-12.09c-3.16-3.16-3.16-8.3,0-11.46,3.16-3.15,8.29-3.15,11.45,0l6.36,6.36,18.59-18.6c3.17-3.15,8.29-3.15,11.45,0,3.17,3.16,3.17,8.3,0,11.46Z"/>
    </g>
  </g>
</svg>