<?xml version="1.0" encoding="UTF-8"?>
<svg id="Layer_2" data-name="Layer 2" xmlns="http://www.w3.org/2000/svg" viewBox="0 0 298.69 234.46">
  <defs>
    <style>
      .cls-1 {
        fill: #203b72;
      }

      .cls-2 {
        fill: #1e9fda;
      }
    </style>
  </defs>
  <g id="Layer_1-2" data-name="Layer 1">
    <g>
      <path class="cls-1" d="m281.15,0H79.34c-9.67,0-17.54,7.86-17.54,17.53v65.77c5.85.81,11.29,2.62,16.26,5.31v-37.28h204.37v125.57c0,3.36-2.69,6.04-6.05,6.04H121.39c2.29,5.04,3.77,10.48,4.43,16.19h150.56c12.29,0,22.31-9.95,22.31-22.23V17.53c0-9.67-7.86-17.53-17.54-17.53ZM92.03,34.93c-5.17,0-9.4-4.16-9.4-9.34s4.23-9.41,9.4-9.41,9.34,4.24,9.34,9.41-4.17,9.34-9.34,9.34Zm28.42,0c-5.17,0-9.34-4.16-9.34-9.34s4.17-9.41,9.34-9.41,9.34,4.24,9.34,9.41-4.17,9.34-9.34,9.34Zm28.42,0c-5.18,0-9.34-4.16-9.34-9.34s4.17-9.41,9.34-9.41,9.4,4.24,9.4,9.41-4.23,9.34-9.4,9.34Z"/>
      <path class="cls-2" d="m137.92,158.51h84.66c9.35,0,16.93-7.58,16.93-16.93v-48.9c0-9.36-7.58-16.93-16.93-16.93h-84.66c-9.36,0-16.93,7.58-16.93,16.93v48.9c0,9.36,7.58,16.93,16.93,16.93Zm28.51-56.42c0-3.17,3.48-5.1,6.17-3.42l24.06,15.04c2.53,1.58,2.53,5.26,0,6.84l-24.06,15.04c-2.68,1.68-6.17-.26-6.17-3.42v-30.07Z"/>
      <path class="cls-1" d="m87,170.51c-8.66,7.59-19.95,12.03-32.25,12.03s-23.58-4.44-32.25-12.03c-12.77,6.51-22.5,17.87-22.5,36.21v20.83c0,3.82,3.09,6.91,6.85,6.91h95.73c3.83,0,6.92-3.09,6.92-6.91v-20.83c0-18.34-9.74-29.69-22.51-36.21Z"/>
      <circle class="cls-1" cx="54.74" cy="132.66" r="33.07" transform="translate(-29.01 16.13) rotate(-13.28)"/>
    </g>
  </g>
</svg>