<?xml version="1.0" encoding="UTF-8"?>
<svg id="Layer_2" data-name="Layer 2" xmlns="http://www.w3.org/2000/svg" viewBox="0 0 291.54 237.16">
  <defs>
    <style>
      .cls-1 {
        fill: #203b72;
      }

      .cls-2 {
        fill: #1e9fda;
      }
    </style>
  </defs>
  <g id="Layer_1-2" data-name="Layer 1">
    <g>
      <path class="cls-1" d="m262.05,0H29.48C13.23,0,0,13.22,0,29.48v178.19c0,16.26,13.23,29.48,29.48,29.48h232.57c16.26,0,29.48-13.23,29.48-29.48V29.48c0-16.26-13.22-29.48-29.48-29.48Zm-66.99,25.87h50.75c4.67,0,8.46,3.79,8.46,8.46s-3.79,8.46-8.46,8.46h-50.75c-4.67,0-8.46-3.79-8.46-8.46s3.79-8.46,8.46-8.46Zm-89.85-1.98c5.76,0,10.44,4.67,10.44,10.44s-4.67,10.44-10.44,10.44-10.44-4.67-10.44-10.44,4.67-10.44,10.44-10.44Zm-30.82,0c5.76,0,10.44,4.67,10.44,10.44s-4.67,10.44-10.44,10.44-10.44-4.67-10.44-10.44,4.67-10.44,10.44-10.44Zm-30.82,0c5.76,0,10.44,4.67,10.44,10.44s-4.67,10.44-10.44,10.44-10.44-4.67-10.44-10.44,4.67-10.44,10.44-10.44Zm229.66,183.79c0,6.17-5.02,11.18-11.18,11.18H29.48c-6.17,0-11.18-5.02-11.18-11.18V68.76h254.94v138.91Z"/>
      <path class="cls-2" d="m55.54,190.49h38.44c6.17,0,11.18-5.02,11.18-11.18v-71.32c0-6.17-5.02-11.18-11.18-11.18h-38.44c-6.17,0-11.18,5.01-11.18,11.18v71.32c0,6.17,5.01,11.18,11.18,11.18Z"/>
      <path class="cls-2" d="m134.45,115.1h103.58c5.05,0,9.15-4.1,9.15-9.15s-4.1-9.15-9.15-9.15h-103.58c-5.05,0-9.15,4.1-9.15,9.15s4.1,9.15,9.15,9.15Z"/>
      <path class="cls-2" d="m134.45,152.79h103.58c5.05,0,9.15-4.1,9.15-9.15s-4.1-9.15-9.15-9.15h-103.58c-5.05,0-9.15,4.1-9.15,9.15s4.1,9.15,9.15,9.15Z"/>
      <path class="cls-2" d="m134.45,190.49h103.58c5.05,0,9.15-4.1,9.15-9.15s-4.1-9.15-9.15-9.15h-103.58c-5.05,0-9.15,4.1-9.15,9.15s4.1,9.15,9.15,9.15Z"/>
    </g>
  </g>
</svg>