<?xml version="1.0" encoding="UTF-8"?>
<svg id="Layer_2" data-name="Layer 2" xmlns="http://www.w3.org/2000/svg" viewBox="0 0 1585.62 2520">
  <defs>
    <style>
      .cls-1 {
        fill: #3c4655;
      }

      .cls-2 {
        fill: #2d78c3;
      }
    </style>
  </defs>
  <g id="Layer_1-2" data-name="Layer 1">
    <g>
      <polygon class="cls-1" points="897.69 1209.19 897.69 916.75 1189.94 916.75 1189.94 707.25 897.69 707.25 897.69 414.88 688.06 414.88 688.06 707.25 395.62 707.25 395.62 916.75 688.06 916.75 688.06 1209.19 897.69 1209.19"/>
      <path class="cls-1" d="m1141.62,1937.25c-31,45.44-60.75,88.25-88.69,127.69,179.44,35.44,282.94,101.81,282.94,143.62,0,59.12-206.12,167.69-543,167.69s-543.12-108.56-543.12-167.69c0-41.81,103.5-108.19,283-143.62-27.94-39.44-57.75-82.25-88.62-127.69-193.94,48.25-338.12,139.38-338.12,271.31,0,204.44,345.5,311.44,686.88,311.44s686.75-107,686.75-311.44c0-131.94-144.12-223.06-338-271.31Z"/>
      <path class="cls-2" d="m1585.62,792.88C1585.62,355,1230.62,0,792.88,0S0,355,0,792.88s792.88,1463.56,792.88,1463.56c0,0,792.75-1025.81,792.75-1463.56Zm-1333.75,19c0-298.62,242.25-540.81,541-540.81s540.88,242.19,540.88,540.81-242.06,541.06-540.88,541.06S251.88,1110.75,251.88,811.88Z"/>
    </g>
  </g>
</svg>